<?xml version="1.0" standalone="no"?>
<!DOCTYPE svg PUBLIC "-//W3C//DTD SVG 1.1//EN" "http://www.w3.org/Graphics/SVG/1.1/DTD/svg11.dtd" >
<!--
2016-6-22: Created.
-->
<svg xmlns="http://www.w3.org/2000/svg">
<metadata>
Created by FontForge 20120731 at Wed Jun 22 15:44:41 2016
 By root
Created by root with FontForge 2.0 (http://fontforge.sf.net)
</metadata>
<defs>
<font id="Flaticon" horiz-adv-x="512" >
  <font-face 
    font-family="Flaticon"
    font-weight="500"
    font-stretch="normal"
    units-per-em="512"
    panose-1="2 0 6 3 0 0 0 0 0 0"
    ascent="448"
    descent="-64"
    bbox="-0.000342369 -64.0636 512.001 448.062"
    underline-thickness="25.6"
    underline-position="-51.2"
    unicode-range="U+0020-F163"
  />
    <missing-glyph />
    <glyph glyph-name="space" unicode=" " horiz-adv-x="200" 
 />
    <glyph glyph-name="uniF108" unicode="&#xf108;" 
d="M186.724 90.3311c-8.35938 -7 -21.1074 -5.6416 -27.5859 3.76172c-4.91113 7.10547 -3.76172 16.8232 1.88086 23.4062l52.0361 63.7383c-0.313477 1.98535 -0.522461 3.9707 -0.626953 6.06055c-0.417969 15.5693 6.89648 29.4658 18.3906 38.1387l9.08984 116.61
c0.94043 10.8672 10.9717 19.0176 22.1523 16.9277c8.46387 -1.56738 14.5234 -9.2998 15.1504 -17.8672l9.09082 -115.671c11.1807 -8.35938 18.3906 -21.7334 18.3906 -36.7803c0 -26.0176 -21.3164 -46.916 -47.4385 -46.1846
c-1.98535 0 -4.0752 0.313477 -6.06055 0.626953zM258.612 207.256c-10.2402 0 -18.5996 -8.35938 -18.5996 -18.5996s8.25488 -18.5986 18.5996 -18.5986c10.2402 0 18.5986 8.25391 18.5986 18.5986c0 10.2402 -8.25391 18.5996 -18.5986 18.5996zM256 -64
c-141.166 0 -256 114.834 -256 256s114.834 256 256 256s256 -114.834 256 -256s-114.834 -256 -256 -256zM256 387.813c-107.938 0 -195.813 -87.876 -195.813 -195.813c0 -108.042 87.876 -195.813 195.813 -195.813c108.042 0 195.813 87.876 195.813 195.813
c0 108.042 -87.876 195.813 -195.813 195.813z" />
    <glyph glyph-name="uniF11C" unicode="&#xf11c;" 
d="M256 -64c-141.166 0 -256 114.834 -256 256s114.834 256 256 256s256 -114.834 256 -256s-114.834 -256 -256 -256zM256 370.155c-35.2129 0 -68.127 -10.2402 -95.8174 -28.0029l245.969 -245.97c17.6592 27.6904 28.0039 60.6045 28.0039 95.8174
c0 98.2207 -79.9346 178.155 -178.155 178.155zM105.849 287.817c-17.7637 -27.6904 -28.0039 -60.6045 -28.0039 -95.8174c0 -98.2207 79.9346 -178.155 178.155 -178.155c35.3174 0 68.127 10.2402 95.8174 28.0039z" />
    <glyph glyph-name="uniF12E" unicode="&#xf12e;" 
d="M225.358 26.5889v0v134.718h-134.822v-39.5986c0 -8.1709 -9.74219 -12.2568 -15.5039 -6.59961l-72.2822 70.292c-3.66699 3.56152 -3.66699 9.5332 0 13.0947l72.2822 70.292c5.76172 5.55176 15.5039 1.4668 15.5039 -6.59961v-39.5986h134.718v134.822h-39.5986
c-8.1709 0 -12.2559 9.74316 -6.59961 15.5039l70.292 72.2832c3.5625 3.66602 9.5332 3.66602 13.0947 0l70.292 -72.2832c5.55273 -5.76074 1.4668 -15.5039 -6.59961 -15.5039h-39.5977v-134.717h134.927v39.5977c0 8.1709 9.74219 12.2568 15.5039 6.59961
l72.2822 -70.292c3.66699 -3.56152 3.66699 -9.5332 0 -13.0947l-72.2822 -70.292c-5.76172 -5.55176 -15.5039 -1.4668 -15.5039 6.59961v39.5986h-134.822v-134.822h39.5977c8.1709 0 12.2568 -9.74219 6.59961 -15.5039l-70.292 -72.2822
c-3.56152 -3.66699 -9.53223 -3.66699 -13.0938 0l-70.292 72.2822c-5.55273 5.76172 -1.4668 15.5039 6.59961 15.5039h39.5977z" />
    <glyph glyph-name="uniF11B" unicode="&#xf11b;" 
d="M226.755 64.1562v98.5986h-98.7031v58.4902h98.7031v98.7021h58.4902v-98.7021h98.7031v-58.4902h-98.7031v-98.7031h-58.4902v0.104492zM512 271.484v0.104492h-58.4902v118.025h-118.025v58.3857h147.271c16.1895 0 29.2451 -13.1602 29.2451 -29.2451v-147.271z
M512 -34.7549c0 -16.085 -13.1602 -29.2451 -29.1406 -29.1406h-147.271v58.3857h118.025v118.025h58.3857v-147.271zM29.2451 -64c-16.085 0 -29.2451 13.1602 -29.2451 29.1406v147.271h58.4902v-118.025h118.025v-58.3857h-147.271zM0 418.755
c0 16.085 13.1602 29.2451 29.1406 29.2451h147.271v-58.4902h-118.025v-118.025h-58.3857v147.271z" />
    <glyph glyph-name="uniF135" unicode="&#xf135;" 
d="M289.089 322.781h-0.112305v123.027c125.837 -16.1787 223.023 -123.59 223.023 -253.809c0 -27.6396 -4.38184 -54.1553 -12.4717 -79.0977l-111.23 52.8066c1.68457 8.53906 2.58398 17.3027 2.58398 26.291c0 63.1436 -43.2568 116.062 -101.793 130.781z
M223.023 61.2188h-0.112305v-123.028c-125.725 16.1797 -222.911 123.591 -222.911 253.81s97.2988 237.63 223.023 253.809v-123.027c-58.4238 -14.7188 -101.793 -67.75 -101.793 -130.781s43.2568 -116.062 101.793 -130.781zM359.984 106.049l111.118 -52.8066
c-39.8857 -61.7949 -105.613 -105.164 -182.014 -115.052v123.028c28.2002 7.0791 52.9189 23.0332 70.8955 44.8301z" />
    <glyph glyph-name="uniF14A" unicode="&#xf14a;" 
d="M244 285.737c0 11.999 9.68457 21.6836 21.6846 21.6836s21.6836 -9.68359 21.6836 -21.6836s-9.68359 -21.6846 -21.6836 -21.6846s-21.6846 9.68359 -21.6846 21.6846zM171.685 285.737c0 11.999 9.68359 21.6836 21.6836 21.6836s21.6846 -9.68359 21.6846 -21.6836
s-9.68457 -21.6846 -21.6846 -21.6846s-21.6836 9.68359 -21.6836 21.6846zM99.3682 285.737c0 11.999 9.68457 21.6836 21.6846 21.6836s21.6846 -9.68359 21.6846 -21.6836s-9.68457 -21.6846 -21.6846 -21.6846c-11.8945 0 -21.6846 9.68359 -21.6846 21.6846z
M157.263 111.105h6.52637v-28.7373c0 -9.2627 7.47363 -16.7363 16.7373 -16.7363h205.263l43.4736 -43.4736v43.4736h27.3691c9.2627 0 16.7363 7.47363 16.7363 16.7363v167.369c0 9.2627 -7.47363 16.7363 -16.7363 16.7363h-33.2637v38.6318h33.2637
c30.5264 0 55.3682 -24.8418 55.3682 -55.3682v-167.369c0 -26.6309 -18.9473 -49.0527 -44.1055 -54.21v-49.1582c0 -11.4736 -9.36816 -20.7373 -20.7363 -20.7373c-5.5791 0 -10.7373 2.21094 -14.6318 6.10547l-62.7373 62.7373h-189.157
c-29.4736 0 -53.5791 23.1572 -55.2637 52.21zM50.6318 84.4736c-4.21094 3.89453 -6.52637 9.47363 -6.52637 15.1582v49.1572c-25.1582 5.26367 -44.1055 27.5791 -44.1055 54.2109v167.368c0 30.5264 24.8418 55.3691 55.3682 55.3691h276.105
c30.5264 0 55.3682 -24.8428 55.3682 -55.3691v-167.368c0 -30.5264 -24.8418 -55.3682 -55.3682 -55.3682h-189.263l-62.6318 -62.6318c-3.89453 -3.89453 -9.1582 -6.10547 -14.7373 -6.10547v0c-5.36816 -0.105469 -10.4209 1.89453 -14.21 5.5791zM55.3682 387.105
c-9.2627 0 -16.7363 -7.47363 -16.7363 -16.7373v-167.368c0 -9.2627 7.47363 -16.7373 16.7363 -16.7373h27.3691v-43.4736l43.4736 43.4746h205.263c9.26367 0 16.7373 7.47363 16.7373 16.7363v167.368c0 9.26367 -7.47363 16.7373 -16.7373 16.7373h-276.105z" />
    <glyph glyph-name="uniF147" unicode="&#xf147;" 
d="M466.176 361.943c25.2607 0 45.7197 -20.459 45.8242 -45.7197v-186.429c0 -25.2607 -20.459 -45.7197 -45.7197 -45.7197h-125.887c-0.104492 -0.104492 -0.208008 -0.313477 -0.3125 -0.417969l-58.8721 -58.8721c-5.8457 -5.8457 -15.8662 -1.66992 -15.8662 6.57617
v52.7139h-46.5557c-25.2607 0 -45.7197 20.459 -45.7197 45.7197v186.429c0 25.2607 20.459 45.7197 45.7197 45.7197h247.389zM113.465 333.864c11.5859 0 20.9805 -9.29004 20.876 -20.877v0c0 -11.4814 -9.29004 -20.876 -20.876 -20.876h-92.5879
c-11.4824 0 -20.877 9.29004 -20.877 20.876v0c0 11.4824 9.29004 20.877 20.877 20.877h92.5879zM113.465 250.253c11.5859 0 20.9805 -9.39453 20.876 -20.876v0c0 -11.4824 -9.29004 -20.877 -20.876 -20.877h-92.5879c-11.4824 0 -20.877 9.29004 -20.877 20.877v0
c0 11.4814 9.29004 20.876 20.877 20.876h92.5879zM113.465 166.538c11.5859 0 20.9805 -9.29004 20.876 -20.877v0c0 -11.4824 -9.29004 -20.877 -20.876 -20.877h-92.5879c-11.4824 0 -20.877 9.29004 -20.877 20.877v0c0 11.4824 9.29004 20.877 20.877 20.877h92.5879z
" />
    <glyph glyph-name="uniF149" unicode="&#xf149;" 
d="M113.614 327.662c11.5293 0 20.9629 -9.43359 20.9629 -20.9629v0c0 -11.6338 -9.43359 -20.9619 -20.9629 -20.9619h-92.6523c-11.6338 0 -20.9619 9.43262 -20.9619 20.9619v0c0 11.6348 9.43262 20.9629 20.9619 20.9629h92.6523zM113.614 244.022
c11.5293 0 20.9629 -9.43262 20.9629 -20.9619v0c0 -11.6338 -9.43359 -20.9619 -20.9629 -20.9619h-92.6523c-11.6338 0 -20.9619 9.43262 -20.9619 20.9619v0c0 11.6338 9.43262 20.9619 20.9619 20.9619h92.6523zM113.614 160.279
c11.5293 0 20.9629 -9.32812 20.9629 -20.9619v0c0 -11.6348 -9.43359 -20.9629 -20.9629 -20.9629h-92.6523c-11.6338 0 -20.9619 9.43359 -20.9619 20.9629v0c0 11.6338 9.43262 20.9619 20.9619 20.9619h92.6523zM466.303 361.935
c25.2588 0 45.6973 -20.4375 45.6973 -45.6973v-186.458c0 -25.2598 -20.4385 -45.6973 -45.6973 -45.6973h-125.878c-0.104492 -0.105469 -0.208984 -0.314453 -0.314453 -0.419922l-58.9033 -58.9033c-5.86914 -5.76465 -15.8262 -1.67676 -15.8262 6.60352v52.7197
h-46.4316c-25.2588 0 -45.6973 20.4375 -45.6973 45.6973v186.458c0 25.2598 20.4385 45.6973 45.6973 45.6973h247.354zM281.521 202.937c11.1094 0 20.124 9.01465 20.124 20.124c0 11.1104 -9.01465 20.124 -20.124 20.124c-11.1104 0 -20.124 -9.01367 -20.124 -20.124
c0 -11.1094 9.01367 -20.124 20.124 -20.124zM342.626 202.937c11.1104 0 20.124 9.01465 20.124 20.124c0 11.1104 -9.01367 20.124 -20.124 20.124s-20.124 -9.01367 -20.124 -20.124c0 -11.1094 9.01367 -20.124 20.124 -20.124zM403.73 202.937
c11.1104 0 20.124 9.01465 20.124 20.124c0 11.1104 -9.01367 20.124 -20.124 20.124c-11.1094 0 -20.123 -9.01367 -20.123 -20.124c0 -11.1094 9.01367 -20.124 20.123 -20.124z" />
    <glyph glyph-name="uniF148" unicode="&#xf148;" 
d="M458.93 414.69c29.3203 0 53.0703 -23.75 53.0703 -52.9658v-246.121c0 -29.3203 -23.75 -53.0703 -53.0703 -53.0703h-289.944l-90.9033 -90.9033c-4.93945 -4.93945 -13.2412 -1.47168 -13.2412 5.46484v85.4385h-11.7705c-29.3203 0 -53.0703 23.75 -53.0703 53.0703
v246.017c0 29.3203 23.75 53.0703 53.0703 53.0703h405.859zM164.046 211.551c15.2383 0 27.6387 12.4004 27.6387 27.6387s-12.4004 27.6387 -27.6387 27.6387s-27.6387 -12.4004 -27.6387 -27.6387s12.4004 -27.6387 27.6387 -27.6387zM256 211.551
c15.2383 0 27.6387 12.4004 27.6387 27.6387s-12.4004 27.6387 -27.6387 27.6387s-27.6387 -12.4004 -27.6387 -27.6387s12.4004 -27.6387 27.6387 -27.6387zM347.954 211.551c15.2383 0 27.6387 12.4004 27.6387 27.6387s-12.4004 27.6387 -27.6387 27.6387
s-27.6387 -12.4004 -27.6387 -27.6387s12.4004 -27.6387 27.6387 -27.6387z" />
    <glyph glyph-name="uniF128" unicode="&#xf128;" 
d="M134.11 336.764c0 -12.6377 -10.2363 -22.874 -22.874 -22.874h-88.3623c-12.6387 0 -22.874 10.2363 -22.874 22.874v88.3623c0 12.6387 10.2354 22.874 22.874 22.874h88.3623c12.6377 0 22.874 -10.2354 22.874 -22.874v-88.3623v0zM323.055 425.126v-88.3623
c0 -12.6377 -10.2354 -22.874 -22.873 -22.874h-88.3633c-12.6377 0 -22.873 10.2363 -22.873 22.874v88.3623c0 12.6387 10.2354 22.874 22.873 22.874h88.3633c12.6377 0 22.873 -10.2354 22.873 -22.874zM512 425.126v-88.3623
c0 -12.6377 -10.2354 -22.874 -22.874 -22.874h-88.3623c-12.6377 0 -22.874 10.2363 -22.874 22.874v88.3623c0 12.6387 10.2363 22.874 22.874 22.874h88.3623c12.6387 0 22.874 -10.2354 22.874 -22.874zM323.055 236.182v-88.3633
c0 -12.6377 -10.2354 -22.873 -22.873 -22.873h-88.3633c-12.6377 0 -22.873 10.2354 -22.873 22.873v88.3633c0 12.6377 10.2354 22.873 22.873 22.873h88.3633c12.6377 0 22.873 -10.2354 22.873 -22.873zM512 236.182v-88.3633
c0 -12.6377 -10.2354 -22.873 -22.874 -22.873h-88.3623c-12.6377 0 -22.874 10.2354 -22.874 22.873v88.3633c0 12.6377 10.2363 22.873 22.874 22.873h88.3623c12.6387 0 22.874 -10.2354 22.874 -22.873zM134.11 236.182v0v-88.3633
c0 -12.6377 -10.2363 -22.873 -22.874 -22.873h-88.3623c-12.6387 0 -22.874 10.2354 -22.874 22.873v88.3633c0 12.6377 10.2354 22.873 22.874 22.873h88.3623c12.6377 0 22.874 -10.2354 22.874 -22.873zM300.182 70.1104c12.6377 0 22.873 -10.2363 22.873 -22.874
v-88.3623c0 -12.6377 -10.2354 -22.874 -22.873 -22.874h-88.3633c-12.6377 0 -22.873 10.2363 -22.873 22.874v88.3623c0 12.6377 10.2354 22.874 22.873 22.874h88.3633zM400.764 -64c-12.6377 0 -22.874 10.2363 -22.874 22.874v88.3623
c0 12.6377 10.2363 22.874 22.874 22.874h88.3623c12.6387 0 22.874 -10.2363 22.874 -22.874v-88.3623c0 -12.6387 -10.2354 -22.874 -22.874 -22.874h-88.3623zM111.236 70.1104c12.6377 0 22.874 -10.2363 22.874 -22.874v-88.3623
c0 -12.6387 -10.2363 -22.874 -22.874 -22.874h-88.3623c-12.6387 0 -22.874 10.2354 -22.874 22.874v88.3623c0 12.6377 10.2354 22.874 22.874 22.874h88.3623z" />
    <glyph glyph-name="uniF113" unicode="&#xf113;" 
d="M506.968 138.483c3.35449 -5.13672 5.03223 -11.0078 5.03223 -17.0879v-156.829c0 -15.3047 -12.4746 -27.7803 -27.7803 -27.7803h-228.22h-228.22c-15.3057 0 -27.7803 12.4756 -27.7803 27.7803v156.829c0 6.08008 1.78223 12.0557 5.03223 17.0879l72.7529 112.59
c5.66113 8.70117 15.2012 13.9424 25.5791 13.9424h32.1836c4.6123 0 7.44336 -5.13672 4.92676 -9.12012l-78.624 -121.605c-0.943359 -1.57227 0.105469 -3.66895 1.99219 -3.66895h38.3682h24.1113h26.9424c3.25 0 5.76562 -2.5166 5.97559 -5.76562
c3.04004 -50.7393 45.0771 -90.9951 96.6553 -90.9951c51.5771 0 93.6143 40.2559 96.6553 90.9951c0.208984 3.14453 2.72559 5.76562 5.97461 5.76562h26.9424h28.0947h34.4902c1.88672 0 3.04004 2.09668 1.99121 3.66895l-78.624 121.605
c-2.62109 3.87891 0.209961 9.12012 4.92773 9.12012h32.1826c10.3789 0 19.9189 -5.24121 25.5791 -13.9424zM247.613 134.08l-69.1895 87.8496c-5.55566 7.02344 -0.523438 17.4023 8.38672 17.4023h27.2568v165.949c0 23.168 18.7646 41.9326 41.9326 41.9326v0
c23.168 0 41.9326 -18.7646 41.9326 -41.9326v-165.949h27.2568c8.91016 0 13.9424 -10.3789 8.38672 -17.4023l-69.085 -87.8496c-4.29785 -5.45117 -12.5801 -5.45117 -16.8779 0z" />
    <glyph glyph-name="uniF15F" unicode="&#xf15f;" 
d="M256 448c141.115 0 256 -114.885 256 -256s-114.885 -256 -256 -256s-256 114.885 -256 256s114.885 256 256 256zM256 13.8496c98.3086 0 178.15 79.8418 178.256 178.255c0 98.2041 -79.9473 178.151 -178.256 178.151c-98.2031 0 -178.15 -79.8428 -178.15 -178.151
c0 -98.3076 79.8418 -178.255 178.15 -178.255zM358.925 205.744c0.628906 -4.51172 1.04883 -9.02246 1.04883 -13.7441c0 -57.3906 -46.583 -103.974 -103.974 -103.974s-103.974 46.583 -103.974 103.974s46.583 103.974 103.974 103.974
c4.61621 0 9.23242 -0.419922 13.7441 -1.04883c-9.9668 -11.2266 -16.1572 -25.915 -16.1572 -42.0723c0 -34.9375 28.3281 -63.2656 63.2656 -63.2656c16.1572 0 30.9512 6.08496 42.0723 16.1572z" />
    <glyph glyph-name="uniF14F" unicode="&#xf14f;" 
d="M152.449 149.727c0 -7.33398 -5.86621 -13.4102 -13.3047 -13.4102c-3.66699 0 -7.01953 1.46582 -9.42969 3.87598c-2.40918 2.40918 -3.87598 5.7627 -3.87598 9.42871c0 7.33398 5.86719 13.4102 13.3057 13.4102c7.22852 0 13.3047 -5.97168 13.3047 -13.3047z
M161.354 83.1982c5.13477 5.23926 13.6201 5.23926 18.7539 0.105469c5.23828 -5.13379 5.34277 -13.6201 0.104492 -18.8584c-5.13379 -5.23828 -13.6191 -5.23828 -18.8584 -0.104492v0c-5.13281 5.23828 -5.23828 13.6191 0 18.8574zM246.532 244.227
c-3.66699 0 -7.01953 1.4668 -9.53418 3.98145c-2.40918 2.40918 -3.87598 5.76172 -3.87598 9.42871c0 7.43848 5.97168 13.4102 13.4102 13.4102s13.4102 -5.97168 13.4102 -13.4102s-6.07617 -13.4102 -13.4102 -13.4102zM160.831 216.254v0
c-5.23828 5.23828 -5.23828 13.7246 -0.104492 18.8584l0.208984 0.208984c0.105469 0.104492 0.105469 0.104492 0.209961 0.209961c5.13379 5.23828 13.6201 5.23828 18.8584 0s5.23828 -13.6201 0 -18.8584c-0.105469 -0.104492 -0.105469 -0.104492 -0.209961 -0.209961
l-0.104492 -0.104492c-5.13379 -5.23828 -13.6201 -5.23828 -18.8584 -0.104492zM246.847 55.8545c7.4375 0 13.4102 -5.97168 13.4102 -13.3057c0 -7.43848 -5.97168 -13.4102 -13.3057 -13.4102c-3.77148 0 -7.12402 1.4668 -9.53418 3.87598
c-2.40918 2.41016 -3.87598 5.7627 -3.87598 9.42969c0 7.43848 5.86719 13.4102 13.3057 13.4102zM313.373 83.6182c5.13477 5.23828 13.6201 5.23828 18.8584 0.104492c5.13281 -5.23828 5.23828 -13.7246 0 -18.9629c-5.13379 -5.23828 -13.6201 -5.23828 -18.8584 0
c-5.23828 5.13379 -5.23828 13.6191 0 18.8584zM354.129 163.556c7.4375 0 13.4102 -5.97168 13.3057 -13.3057c-0.105469 -7.43848 -5.97168 -13.4102 -13.4111 -13.4102c-3.66602 -0.104492 -7.01855 1.4668 -9.42871 3.87598
c-2.40918 2.41016 -3.87598 5.7627 -3.87598 9.42969c0 7.43848 5.97168 13.4102 13.4102 13.4102zM247.161 -64c-117.864 0 -213.831 95.9668 -213.831 213.831c0 109.378 82.6611 199.792 188.791 212.26v32.373h-13.3057c-6.70508 0 -12.0479 5.44824 -12.0479 12.0479
v29.4404c0 6.70508 5.44824 12.0479 12.0479 12.0479h76.6904c6.70508 0 12.0479 -5.44824 12.0479 -12.0479v-29.4404c0 -6.70508 -5.44727 -12.0479 -12.0479 -12.0479h-13.3057v-32.2686c40.3359 -4.71484 77.2139 -20.7441 107.492 -44.7363l17.3906 17.3916
l-1.57129 1.57129c-4.71484 4.71484 -4.71484 12.3633 0 17.0771l23.8867 23.8877c4.71484 4.71484 12.3633 4.71484 17.0771 0l38.6602 -38.6592c4.71387 -4.71484 4.71387 -12.3633 0 -17.0771l-23.8877 -23.8877c-4.71387 -4.71387 -12.3623 -4.71387 -17.0771 0
l-1.57129 1.57227l-17.3916 -17.3916c28.7061 -36.3545 45.7842 -82.2432 45.7842 -132.008c0 -117.969 -95.9678 -213.936 -213.831 -213.936zM411.331 149.831c0 90.5195 -73.6523 164.171 -164.171 164.171c-90.5195 0 -164.172 -73.6514 -164.172 -164.171
s73.5469 -164.171 164.172 -164.171c90.5195 0 164.171 73.6514 164.171 164.171zM333.07 236.579c4.92383 -4.9248 5.23828 -12.8867 0.733398 -18.125l-54.4795 -63.8037c1.3623 -9.95312 -1.67578 -20.3252 -9.32422 -27.9727
c-12.8867 -12.8867 -33.8398 -12.8867 -46.8311 0c-12.8867 12.8857 -12.8867 33.8398 0 46.8311c7.64844 7.64746 18.0205 10.6855 27.9727 9.32422l63.8037 54.4795c5.3418 4.50488 13.2002 4.19043 18.125 -0.733398v0zM256.066 159.47
c-5.23926 5.23828 -13.7246 5.23828 -18.8584 0c-5.23828 -5.23828 -5.23828 -13.7246 0 -18.8584c5.23828 -5.23828 13.7246 -5.23828 18.8584 0c5.23828 5.23828 5.23828 13.6201 0 18.8584z" />
    <glyph glyph-name="uniF145" unicode="&#xf145;" 
d="M458.879 436.666c29.29 0 53.1211 -23.8311 53.1211 -53.1211v-289.962c0 -29.29 -23.7266 -53.0166 -53.0166 -53.0166h-290.066l-90.915 -90.9141c-4.8291 -4.93457 -13.2275 -1.46973 -13.2275 5.45898v85.4551h-11.7578c-29.291 0 -53.0166 23.7266 -53.0166 53.0166
v290.067c0 29.29 23.7256 53.0156 53.0166 53.0156h405.862zM163.982 210.953c15.2227 0 27.6104 12.3887 27.6104 27.6113c0 15.2217 -12.3877 27.6104 -27.6104 27.6104c-15.2217 0 -27.6104 -12.3887 -27.6104 -27.6104c0 -15.2227 12.3887 -27.6113 27.6104 -27.6113z
M255.947 210.953c15.2227 0 27.6104 12.3887 27.6104 27.6113c0 15.2217 -12.3877 27.6104 -27.6104 27.6104s-27.6104 -12.3887 -27.6104 -27.6104c0 -15.2227 12.3877 -27.6113 27.6104 -27.6113zM347.912 210.953c15.2227 0 27.6104 12.3887 27.6104 27.6113
c0 15.2217 -12.3877 27.6104 -27.6104 27.6104s-27.6104 -12.3887 -27.6104 -27.6104c0 -15.2227 12.3877 -27.6113 27.6104 -27.6113z" />
    <glyph glyph-name="uniF110" unicode="&#xf110;" 
d="M119.557 228.096l48.2979 210.095s74.7559 9.76465 149.723 8.18945c29.9229 2.41504 61.8418 2.625 87.1455 -2.83496c85.9902 -18.2686 64.4668 -78.2207 64.4668 -78.2207c46.4082 -34.8584 19.9492 -78.3262 19.9492 -78.3262
c41.1582 -43.0479 0.734375 -79.0615 0.734375 -79.0615s22.2598 -34.6484 -6.4043 -60.8965c-35.9082 -32.7588 -133.238 -11.0244 -133.238 -11.0244v0c-6.71973 1.1543 -13.9648 2.62402 -21.7344 4.40918c0 0 -33.7031 15.749 0 -86.5156
s-22.4688 -117.909 -46.0928 -117.909s-15.749 50.5029 -15.749 50.5029s-50.5029 139.328 -98.7998 176.391c-10.3945 10.9199 -16.9043 22.8896 -20.8945 32.7588v0v0c-0.944336 2.41504 -1.78418 4.72461 -2.51953 6.82422
c-3.25488 6.61523 -10.1846 16.7998 -24.8838 25.6191zM74.4092 231.035h-69.9268l-0.105469 209.99h114.13c10.1846 0 16.7988 -8.08496 14.6992 -18.0596l-36.5381 -173.871c-2.10059 -9.97461 -12.0742 -18.0596 -22.2588 -18.0596z" />
    <glyph glyph-name="uniF123" unicode="&#xf123;" 
d="M509.178 59.6367c1.77734 -2.08984 2.71777 -4.80762 2.82227 -7.52539v-12.959c0 -16.8262 -13.6914 -30.4131 -30.4131 -30.4131h-451.174c-16.8262 0 -30.4131 13.6914 -30.4131 30.4131v12.959c0 2.71777 0.94043 5.43555 2.71777 7.52539l23.0967 28.3223
c3.65723 4.59863 5.64355 10.1377 5.64355 15.9902v32.9209v9.82422v183.835c0 24.665 19.9619 44.7305 44.7305 44.7305h192.301h167.531c24.665 0 44.7305 -19.9609 44.7305 -44.7305v-135.133v0v-48.7021v-16.8262v-26.3369
c0 -5.85254 1.98633 -11.4961 5.64355 -15.9902zM304.546 53.0527h-0.104492v3.34375h-96.9863v-3.34375c0 -8.57031 6.89746 -15.4678 15.4668 -15.4678h66.1562c8.56934 0 15.4678 6.89746 15.4678 15.4678zM87.7891 101.023h336.944v218.428h-336.944v-218.428z" />
    <glyph glyph-name="uniF104" unicode="&#xf104;" 
d="M255.896 338.547c80.5508 -0.417969 145.868 -65.9434 145.973 -146.495c0 -80.5508 -65.4219 -146.181 -145.868 -146.494v0h-0.313477h-0.3125v0c-80.5508 0.417969 -145.868 65.9434 -145.868 146.494c0 80.5518 65.3174 146.077 145.764 146.495v0h0.313477h0.3125v0
zM255.583 89.4854c56.4482 0.208984 102.254 46.1182 102.254 102.566c0 56.4492 -45.9102 102.358 -102.254 102.567v-205.134zM233.775 448h44.5537v-77.7334h-44.5537v77.7334zM233.775 13.7334h44.5537v-77.7334h-44.5537v77.7334zM0.0517578 214.276h77.7344v-44.5527
h-77.7344v44.5527zM511.948 169.827h-77.7344v44.5537h77.7344v-44.5537zM114.201 302.34l-54.9883 54.9883l31.5117 31.5107l54.9873 -54.9873zM397.799 81.7637l54.9883 -54.9873l-31.5117 -31.5107l-54.9873 54.9873zM145.712 50.2529l-54.9873 -54.9873
l-31.5117 31.5107l54.9883 54.9873zM397.799 302.34l-31.5107 31.5117l54.9873 54.9873l31.5117 -31.5107z" />
    <glyph glyph-name="uniF132" unicode="&#xf132;" 
d="M107.136 9.30762c39.3203 43.1895 86.7979 1.25488 86.7979 1.25488l37.0195 -28.5498l1.25488 179.975v63.4766v0c0.523438 16.8369 14.3271 30.4316 31.2686 30.4316c17.2539 0 31.3721 -14.0127 31.3721 -31.373l14.1172 -117.02s93.4902 -15.5811 158.745 -60.2354
c0 0 11.3994 -57.7256 -2.09082 -111.268h-293.438c-39.8428 37.8564 -65.0459 73.3076 -65.0459 73.3076zM71.2666 192.313c-17.4639 0 -31.5811 14.1182 -31.4766 31.4775c0 17.3594 14.1172 31.4766 31.4766 31.4766s31.4775 -14.1172 31.4775 -31.4766
s-14.1182 -31.4775 -31.4775 -31.4775zM71.2666 384.941c-17.4639 0 -31.4766 14.2217 -31.4766 31.5811c0 17.3604 14.1172 31.4775 31.4766 31.4775s31.4775 -14.2227 31.4775 -31.582s-14.1182 -31.4766 -31.4775 -31.4766zM71.2666 288.627
c-17.4639 0 -31.4766 14.2227 -31.4766 31.582s14.1172 31.4775 31.4766 31.4775s31.4775 -14.2227 31.4775 -31.582s-14.1182 -31.4775 -31.4775 -31.4775zM167.581 192.313c-17.3604 0 -31.4775 14.1182 -31.4775 31.4775s14.1172 31.4766 31.4775 31.4766
c17.3594 0 31.4766 -14.1172 31.4766 -31.4766s-14.1172 -31.4775 -31.4766 -31.4775zM167.581 384.941c-17.3604 0 -31.4775 14.1172 -31.4775 31.4766s14.1172 31.4775 31.4775 31.4775c17.3594 0 31.4766 -14.1182 31.4766 -31.4775s-14.1172 -31.4766 -31.4766 -31.4766
zM167.581 288.627c-17.3604 0 -31.4775 14.1182 -31.4775 31.4775s14.1172 31.4775 31.4775 31.4775c17.3594 0 31.4766 -14.1182 31.4766 -31.4775s-14.1172 -31.4775 -31.4766 -31.4775zM167.581 96c-17.3604 0 -31.4775 14.1172 -31.4775 31.4775
c0 17.3594 14.1172 31.4766 31.4775 31.4766c17.3594 0 31.4766 -14.1172 31.4766 -31.4766c0 -17.3604 -14.1172 -31.4775 -31.4766 -31.4775zM263.999 447.896c17.3594 0 31.4775 -14.1182 31.4775 -31.4775s-14.1182 -31.4766 -31.4775 -31.4766
s-31.4775 14.1172 -31.4775 31.4766s14.1182 31.4775 31.4775 31.4775zM263.999 351.582c17.3594 0 31.4775 -14.1182 31.4775 -31.4775s-14.1182 -31.4775 -31.4775 -31.4775s-31.4775 14.1182 -31.4775 31.4775s14.1182 31.4775 31.4775 31.4775z" />
    <glyph glyph-name="uniF125" unicode="&#xf125;" 
d="M144.371 181.483c0.734375 2.09961 1.57422 4.41016 2.51953 6.8252v0v0c3.99023 9.87109 10.6064 21.9473 20.8975 32.7637c48.3047 37.0684 98.9199 176.418 98.9199 176.418s-7.87598 50.5098 15.752 50.5098c23.627 0 79.8076 -15.752 46.0996 -117.927
c-33.709 -102.28 0 -86.5283 0 -86.5283c7.77051 1.78516 14.9111 3.25488 21.7363 4.41016v0s97.3447 21.8418 133.259 -11.0264c28.7725 -26.2529 6.40527 -60.9062 6.40527 -60.9062s40.4297 -36.0186 -0.734375 -79.0732c0 0 26.3574 -43.5791 -19.9521 -78.3369
c0 0 21.5273 -59.9619 -64.4766 -78.2334c-25.3076 -5.35547 -57.126 -5.14551 -87.1592 -2.83496c-75.082 -1.5752 -149.745 8.19043 -149.745 8.19043l-48.3047 210.126c14.5967 8.82129 21.5273 19.0068 24.7832 25.623zM4.3916 152.92v0h69.9365
c10.1865 0 20.1621 -8.08496 22.2627 -18.0615l36.5439 -173.897c2.09961 -9.97559 -4.51562 -18.0615 -14.7021 -18.0615h-114.146z" />
    <glyph glyph-name="uniF103" unicode="&#xf103;" 
d="M255.844 338.494c80.4463 -0.416992 145.868 -65.9434 145.868 -146.494s-65.4219 -146.077 -145.764 -146.494v0h-0.313477h-0.313477v0c-80.5508 0.416992 -145.868 65.9434 -145.868 146.494s65.3174 146.077 145.765 146.494v0h0.3125h0.313477v0zM255.53 89.4326
c56.4482 0.208984 102.254 46.1191 102.254 102.567s-45.9102 102.358 -102.254 102.567c-56.4482 -0.208984 -102.254 -46.1191 -102.254 -102.567s45.9102 -102.358 102.254 -102.567zM233.724 447.948h44.5527v-77.7344h-44.5527v77.7344zM233.724 13.7861h44.5527
v-77.7344h-44.5527v77.7344zM77.6299 169.775h-77.6299v44.5537h77.7334v-44.5537h-0.103516zM434.267 214.225h77.7334v-44.5537h-77.7334v44.5537zM59.2656 357.275l31.5107 31.5117l54.9873 -54.9883l-31.5107 -31.5107zM452.63 26.7246l-31.5107 -31.5117
l-54.9873 54.9883l31.5107 31.5107zM90.6719 -4.78711l-31.5107 31.5117l54.9873 54.9873l31.5117 -31.5107zM452.63 357.275l-54.9873 -54.9873l-31.5107 31.5107l54.9873 54.9883z" />
    <glyph glyph-name="uniF114" unicode="&#xf114;" 
d="M29.3262 354.529h212.689c-9.08008 -9.08008 -18.0547 -18.1592 -27.1338 -27.2383l-31.3086 -31.4131h-125.026v-300.98h300.98v125.13c19.5156 19.5156 39.0312 39.0322 58.5469 58.5479v-212.898c0 -16.1768 -13.1494 -29.3262 -29.3262 -29.3262h-359.422
c-16.1768 0 -29.3262 13.1494 -29.3262 29.3262v359.631c0 16.1768 13.1494 29.2217 29.3262 29.2217zM506.052 372.375c3.13086 -7.09668 3.96582 -15.1328 5.94824 -22.751c-0.521484 -6.05273 -2.60938 -10.749 -6.8877 -14.9238
c-86.4121 -86.3076 -172.823 -172.614 -259.131 -259.131c-3.33984 -3.33984 -6.99219 -5.21777 -11.4805 -6.15723c-37.2568 -7.82715 -74.5137 -15.6543 -111.771 -23.5859c-8.7666 -1.87793 -15.3408 4.69629 -13.4629 13.4629
c7.93164 37.5703 15.7588 75.1406 24.0039 112.606c0.834961 3.65332 3.02637 7.51465 5.63574 10.2275c24.7334 25.0469 49.6758 49.8848 74.5137 74.7236c61.4697 61.4688 122.938 122.938 184.304 184.512c4.4873 4.5918 9.49707 6.8877 15.5498 6.15723
c6.8877 -0.834961 14.0889 -1.56543 20.4551 -4.1748c33.709 -13.6709 57.7119 -37.7783 72.3232 -70.9658zM221.874 92.8936c-1.66992 5.53125 -2.60938 11.4795 -5.32324 16.4893c-10.54 19.5156 -25.6729 34.5439 -45.6055 44.458
c-5.63574 2.81836 -11.585 4.5918 -18.4727 3.96582c-3.33887 -15.7588 -6.7832 -31.0996 -9.80957 -46.5449v-0.104492c16.3848 -2.81836 29.4297 -15.5498 32.665 -31.8311c14.5068 2.92285 28.9082 6.1582 43.415 9.08008
c2.81738 0.521484 3.86133 1.87793 3.13086 4.4873z" />
    <glyph glyph-name="uniF127" unicode="&#xf127;" 
d="M512 192.053c0 -13.166 -10.6582 -23.9287 -23.9277 -23.9287h-299.363c-13.166 0 -23.9287 10.6582 -23.9287 23.9287c0 13.165 10.6582 23.9277 23.9287 23.9277h299.363c13.2695 0 23.9277 -10.7627 23.9277 -23.9277zM57.8877 249.939
c31.9736 0 57.8867 -25.9131 57.8867 -57.8867c0 -31.9746 -25.9131 -57.8877 -57.8867 -57.8877c-31.9746 0 -57.8877 25.9131 -57.8877 57.8877c0 31.9736 25.9131 57.8867 57.8877 57.8867zM488.072 391.628c13.2695 0 23.9277 -10.6582 23.9277 -23.9287
c0 -13.2695 -10.7627 -23.9277 -23.9277 -23.9277h-299.363c-13.2705 0 -23.9287 10.7627 -23.9287 23.9277c0 13.2705 10.7627 23.9287 23.9287 23.9287h299.363zM57.8877 425.587c31.9736 0 57.8867 -25.9131 57.8867 -57.8877
c0 -31.9736 -25.9131 -57.8867 -57.8867 -57.8867c-31.9746 0 -57.8877 25.9131 -57.8877 57.8867c0 31.9746 25.9131 57.8877 57.8877 57.8877zM488.072 40.2285c13.2695 0 23.9277 -10.6582 23.9277 -23.9277c0 -13.2705 -10.7627 -23.9287 -23.9277 -23.9287h-299.363
c-13.2705 0 -23.9287 10.7627 -23.9287 23.9287c0 13.2695 10.7627 23.9277 23.9287 23.9277h299.363zM57.8877 74.1875c31.9736 0 57.8867 -25.8086 57.8867 -57.8867c0 -31.9746 -25.9131 -57.8877 -57.8867 -57.8877c-31.9746 0 -57.8877 25.9131 -57.8877 57.8877
c0 31.9736 25.9131 57.8867 57.8877 57.8867z" />
    <glyph glyph-name="uniF156" unicode="&#xf156;" 
d="M344.734 105.307h109.034c22.8115 0 41.332 -18.5215 41.332 -41.333v-86.6416c0 -22.8105 -18.5205 -41.332 -41.332 -41.332h-395.537c-22.8115 0 -41.332 18.5215 -41.332 41.332v86.6416c0 22.8115 18.5205 41.333 41.332 41.333h109.034
c4.70898 0 8.47559 -3.55762 8.99902 -8.2666c4.08105 -40.3906 38.1934 -71.8877 79.7354 -71.8877c41.4375 0 75.6543 31.4971 79.7354 71.8877c0.523438 4.70898 4.29004 8.2666 8.99902 8.2666zM194.263 313.329c-11.3008 -11.4053 -30.0312 -12.5566 -41.751 -1.46484
c-12.1377 11.4053 -12.3477 30.4502 -0.62793 42.1699l86.7461 86.7461c9.62695 9.62598 25.2178 9.62598 34.8447 0l86.7461 -86.7461c11.7197 -11.6152 11.5107 -30.7646 -0.62793 -42.1699c-11.7197 -11.0918 -30.4502 -9.94043 -41.8555 1.46484l-32.334 32.2295
v-210.744c0 -16.2188 -13.1846 -29.4033 -29.4033 -29.4033v0c-16.2188 0 -29.4033 13.1846 -29.4033 29.4033v210.849z" />
    <glyph glyph-name="uniF13D" unicode="&#xf13d;" 
d="M127.709 59.2441c37.916 -34.2803 87.7773 -49.2393 136.289 -45.084l-10.5957 -69.2871c-56.3018 -1.14258 -113.02 16.4131 -159.142 53.082c-27.1123 21.6074 -48.4072 47.3691 -63.7812 75.5195c-51.2129 93.4912 -37.916 213.159 40.0967 292.938l-47.2646 47.2646
c-2.59668 2.59668 -0.727539 7.27148 3.11621 7.89453l168.699 25.7617c2.80469 0.416016 5.19336 -1.97363 4.77832 -4.77832l-25.7617 -168.595c-0.624023 -3.84375 -5.29785 -5.71387 -7.89551 -3.11621l-47.1602 47.1602
c-51.1084 -52.666 -63.3662 -129.017 -37.1885 -193.214c9.86816 -24.2041 24.9307 -46.7451 45.8096 -65.5469zM441.423 17.5879l47.2646 -47.2646c2.49316 -2.59668 0.727539 -7.27148 -3.11621 -7.89453l-168.699 -25.7617
c-2.80469 -0.416016 -5.19336 1.97363 -4.77832 4.77832l25.7617 168.595c0.624023 3.84375 5.29785 5.71387 7.89551 3.11621l47.1602 -47.1602c51.1084 52.666 63.3662 129.017 37.1885 193.214c-9.86816 24.2041 -24.9307 46.7451 -45.8096 65.5479
c-37.916 34.2793 -87.8818 49.2383 -136.289 45.083l10.5957 69.2871c56.3018 1.14258 113.02 -16.4131 159.142 -53.082c27.1123 -21.6064 48.4072 -47.3691 63.7812 -75.5195c51.2129 -93.4912 37.916 -213.159 -40.0967 -292.938z" />
    <glyph glyph-name="uniF142" unicode="&#xf142;" 
d="M391.801 69.916h-117.373v-62.5078c6.17773 -3.45605 11.2031 -8.58594 14.6582 -14.6592h103.657c6.49121 11.6221 18.9512 19.4756 33.1904 19.4756c21.0459 0 38.1123 -17.0674 38.1123 -38.1123c0 -21.0459 -17.0664 -38.1123 -38.1123 -38.1123
c-14.2393 0 -26.6992 7.85254 -33.1904 19.4746h-103.657c-6.49121 -11.6221 -18.9512 -19.4746 -33.1904 -19.4746c-14.2402 0 -26.6992 7.85254 -33.1914 19.4746h-103.656c-6.49121 -11.6221 -18.9512 -19.4746 -33.1914 -19.4746
c-21.0449 0 -38.1113 17.0664 -38.1113 38.1123c0 21.0449 17.0664 38.1123 38.1113 38.1123c14.2402 0 26.7002 -7.85352 33.1914 -19.4756h103.656c3.45508 6.17773 8.58594 11.2031 14.6582 14.6592v62.5078h-117.163c-47.1162 0 -85.2285 38.2168 -85.2285 85.2285v0
c0 47.1162 38.2168 85.2285 85.2285 85.2285h117.163v37.1699h-117.163c-47.1162 0 -85.2285 38.2168 -85.2285 85.2285v0c0 47.1162 38.2168 85.2285 85.2285 85.2285h271.602c47.1162 0 85.2285 -38.2168 85.2285 -85.2285v0
c0 -47.1172 -38.2168 -85.2285 -85.2285 -85.2285h-117.164v-37.1699h117.164c47.1162 0 85.2285 -38.2168 85.2285 -85.2285v0c0 -47.1172 -38.2168 -85.2285 -85.2285 -85.2285zM145.747 342.249c11.2031 0 20.417 9.21484 20.417 20.418
c0 11.3076 -9.1084 20.417 -20.417 20.417c-11.3076 0 -20.417 -9.10938 -20.417 -20.417c0 -11.3086 9.10938 -20.418 20.417 -20.418zM211.71 342.249c11.3086 0 20.418 9.21484 20.418 20.418c0 11.3076 -9.10938 20.417 -20.418 20.417
c-11.3076 0 -20.417 -9.10938 -20.417 -20.417c0 -11.3086 9.10938 -20.418 20.417 -20.418zM145.747 134.622c11.2031 0 20.417 9.21387 20.417 20.418c0 11.3076 -9.1084 20.417 -20.417 20.417c-11.3076 0 -20.417 -9.10938 -20.417 -20.417
c0 -11.3086 9.10938 -20.418 20.417 -20.418zM211.71 134.622c11.3086 0 20.418 9.21387 20.418 20.418c0 11.3076 -9.10938 20.417 -20.418 20.417c-11.3076 0 -20.417 -9.10938 -20.417 -20.417c0 -11.3086 9.10938 -20.418 20.417 -20.418z" />
    <glyph glyph-name="uniF13E" unicode="&#xf13e;" 
d="M254.63 383.744v60.3174c0 3.35059 4.18945 5.13086 7.0166 3.03711l123.986 -91.1045c2.09375 -1.57129 2.09375 -4.6084 0 -6.17871l-123.986 -91.1045c-2.82715 -2.09473 -7.0166 -0.209961 -7.0166 3.03613v60.2129
c-91.9424 -1.46582 -165.559 -79.585 -159.275 -173.203c5.33984 -80.4238 70.8936 -145.663 151.317 -150.794c85.2402 -5.44531 157.705 55.5 170.69 136.028c2.4082 14.9746 15.3936 25.8652 30.5771 25.8652v0c18.7451 0 33.3008 -16.6494 30.3682 -35.0801
c-18.2207 -114.876 -124.091 -201.059 -246.82 -187.341c-102.623 11.5195 -185.036 93.6182 -196.66 196.242c-15.3936 134.248 88.9053 248.601 219.803 250.066z" />
    <glyph glyph-name="uniF11F" unicode="&#xf11f;" 
d="M491.076 219.41v-0.104492h20.9238v-54.6113h-20.9238c-1.35938 0 -2.61523 -0.836914 -2.92871 -2.0918c-13.1826 -47.2871 -56.4941 -80.2422 -105.455 -80.2422c-27.6191 0 -53.9834 10.3574 -74.2783 29.084c-19.6689 18.0986 -31.9092 42.5791 -34.7334 68.9434
c-3.34766 6.69531 -10.1484 10.9844 -17.6807 10.9844c-7.63672 0 -14.6465 -4.49805 -17.8896 -11.2988c-2.71973 -25.4219 -14.542 -49.1699 -33.373 -67.1641c-19.3545 -18.5176 -44.4629 -29.293 -70.8262 -30.3398
c-1.56934 -0.104492 -3.03418 -0.104492 -4.60352 -0.104492c-48.9609 0 -92.2725 32.9551 -105.455 80.2422c-0.313477 1.15039 -1.56934 1.9873 -2.92871 1.9873h-20.9238v54.6113h20.9238c1.35938 0 2.61523 0.836914 2.92871 2.0918
c13.1826 47.2871 56.4941 80.2422 105.455 80.2422c40.2783 0 76.6846 -21.8652 95.8301 -56.4941c9.72949 4.18555 20.1914 6.27734 30.8623 6.27734c10.7754 0 21.3418 -2.0918 31.0713 -6.27734c18.5176 33.0596 52.9365 54.8203 91.0176 56.3896
c1.56934 0.104492 3.03418 0.104492 4.60352 0.104492c48.9609 0 92.2725 -32.9551 105.455 -80.2422c0.313477 -1.15039 1.56934 -1.9873 2.92871 -1.9873zM438.663 192.104c0 30.8623 -25.1084 55.9707 -55.9707 55.9707s-55.9707 -25.1084 -55.9707 -55.9707
s25.1084 -55.9707 55.9707 -55.9707s55.9707 25.1084 55.9707 55.9707zM185.174 192.104c0 30.8623 -25.0039 55.9707 -55.9707 55.9707c-30.8623 0 -55.9707 -25.1084 -55.9707 -55.9707s25.1084 -55.9707 55.9707 -55.9707s55.9707 25.1084 55.9707 55.9707z" />
    <glyph glyph-name="uniF159" unicode="&#xf159;" 
d="M0 192c0 141.166 114.834 256 256 256s256 -114.834 256 -256s-114.834 -256 -256 -256s-256 114.834 -256 256zM256 404.532c-117.237 0 -212.532 -95.2949 -212.532 -212.532c0 -52.6631 19.3311 -100.833 51.0957 -138.136
c43.8857 33.6455 87.667 55.6934 97.1758 60.3955c1.14941 0.626953 1.87988 1.77637 1.87988 3.13477v27.585c-7.20898 12.1211 -10.9707 25.6006 -12.8516 37.6162c-4.17969 0.313477 -9.71777 6.16504 -15.6738 27.2725
c-8.15039 28.8389 0.522461 33.123 7.83691 32.3916c-5.43359 15.1504 -5.53809 29.9883 -1.88086 43.7812c3.76172 16.1953 12.5391 29.2568 22.3604 39.2881c6.16504 6.58301 13.2705 12.4346 20.6895 17.1357c6.16504 4.28418 12.8525 7.83691 20.167 10.3447v0
c5.74609 1.88086 11.8066 3.13477 18.2852 3.44824c19.958 1.67188 35.1084 -3.23926 45.9756 -9.71777c16.1963 -8.98535 22.3604 -20.793 22.3604 -20.793s40.8564 -2.82129 22.9883 -88.3984c5.53809 -1.88086 9.4043 -9.4043 3.03027 -31.8691
c-7.83691 -27.5859 -14.9424 -29.1533 -19.2266 -26.2275c-1.67188 -9.50781 -4.59766 -20.0615 -9.29883 -29.8838v-31.8691c0 -1.3584 0.730469 -2.50781 1.87988 -3.13477c9.61328 -4.59766 53.29 -26.75 97.1758 -60.3955
c31.7646 37.1982 51.0957 85.3682 51.0957 138.031c0 117.237 -95.2949 212.532 -212.532 212.532z" />
    <glyph glyph-name="uniF10A" unicode="&#xf10a;" 
d="M475.398 97.9043c15.8135 0 28.5898 -12.7764 28.5898 -28.5898v-104.725c0 -15.8135 -12.7764 -28.5898 -28.5898 -28.5898h-438.797c-15.8135 0 -28.5898 12.7764 -28.5898 28.5898v104.83c0 15.8135 12.7764 28.5898 28.5898 28.5898h144.311v20.6309
c0 4.18848 3.45605 7.64453 7.64551 7.64453h25.2383v35.3965h-129.335c-17.4893 0 -31.7324 14.2432 -31.7324 31.7324v222.854c0 17.4893 14.2432 31.7314 31.7324 31.7314h329.778c17.4893 0 31.7314 -14.2422 31.7314 -31.7314v-222.96
c0 -17.4883 -14.2422 -31.7314 -31.7314 -31.7314h-129.335v-35.3965h25.2383c4.18945 0 7.64551 -3.45605 7.64551 -7.64551v-20.6309h157.61zM107.604 216.244v0h283.49v177.403h-283.49v-177.403zM315.274 -2.52637c10.7861 0 19.4785 8.69238 19.4785 19.4785
c0 10.7871 -8.69238 19.4795 -19.4785 19.4795h-210.707c-10.7861 0 -19.4785 -8.69238 -19.4785 -19.4795c0 -10.7861 8.69238 -19.4785 19.4785 -19.4785h210.707zM407.433 -2.52637c10.6816 0 19.4785 8.69238 19.4785 19.4785
c0 10.7871 -8.69238 19.4795 -19.4785 19.4795c-10.7871 0 -19.4795 -8.69238 -19.4795 -19.4795c0 -10.7861 8.69238 -19.4785 19.4795 -19.4785z" />
    <glyph glyph-name="uniF112" unicode="&#xf112;" 
d="M344.734 105.307h109.034c22.8115 0 41.332 -18.5215 41.332 -41.333v-86.6416c0 -22.8105 -18.5205 -41.332 -41.332 -41.332h-395.537c-22.8115 0 -41.332 18.5215 -41.332 41.332v86.6416c0 22.8115 18.5205 41.333 41.332 41.333h109.034
c4.70898 0 8.47559 -3.55762 8.99902 -8.2666c4.08105 -40.3906 38.1934 -71.8877 79.7354 -71.8877c41.4375 0 75.6543 31.4971 79.7354 71.8877c0.523438 4.70898 4.29004 8.2666 8.99902 8.2666zM317.737 239.978c11.3008 11.4053 30.0312 12.5566 41.751 1.46484
c12.1377 -11.4062 12.3477 -30.4502 0.62793 -42.1699l-86.7461 -86.7461c-9.62695 -9.62695 -25.2178 -9.62695 -34.8447 0l-86.7461 86.7461c-11.7197 11.6152 -11.5107 30.7637 0.62793 42.1699c11.7197 11.0918 30.4502 9.94043 41.8555 -1.46484l32.334 -32.334
v210.953c0 16.2188 13.1846 29.4033 29.4033 29.4033v0c16.2188 0 29.4033 -13.1846 29.4033 -29.4033v-210.953z" />
    <glyph glyph-name="uniF106" unicode="&#xf106;" 
d="M66.0547 -40.918c-36.4297 0 -66.0547 29.7305 -66.0547 66.1592v300.438c0 36.4297 29.625 66.0547 66.0547 66.0547h24.5996v-43.5479c0 -24.7051 20.0996 -44.6992 44.6992 -44.6992h22.5068c24.7051 0 44.6992 20.0986 44.6992 44.6992v43.5479h106.881v-43.6523
c0 -24.7051 20.0986 -44.6992 44.6992 -44.6992h22.5068c24.7041 0 44.6992 20.0986 44.6992 44.6992v43.5479h24.5996c36.4297 0 66.0547 -29.625 66.0547 -66.0547v-300.438c0 -36.4297 -29.625 -66.0547 -66.0547 -66.0547h-379.891zM42.8154 266.743
l-0.000976562 -241.502c0 -12.7705 10.3643 -23.2393 23.2402 -23.2393h379.995c12.7715 0 23.2402 10.3633 23.2402 23.2393v241.502h-426.475zM157.86 424.918c7.95605 0 14.4463 -6.49023 14.4463 -14.4463v-62.2861c0 -7.95605 -6.49023 -14.4463 -14.4463 -14.4463
h-22.5068c-7.95508 0 -14.4453 6.49023 -14.4453 14.4463v62.1816c0 7.95508 6.49023 14.4453 14.4453 14.4453h22.5068v0.105469zM391.197 410.367v-62.2861c0 -7.95605 -6.49023 -14.4463 -14.4463 -14.4463h-22.5068c-7.95605 0 -14.4463 6.49023 -14.4463 14.4463
v62.2861c0 7.95508 6.49023 14.4453 14.4463 14.4453h22.5068c7.95605 0.105469 14.4463 -6.38477 14.4463 -14.4453z" />
    <glyph glyph-name="uniF163" unicode="&#xf163;" 
d="M380.558 135.563l117.359 -117.359c18.7773 -18.7783 18.7773 -49.3438 0 -68.1211s-49.3428 -18.7773 -68.1211 0l-117.359 117.359c-79.1777 -48.2998 -184.02 -38.4941 -252.349 29.8359c-80.1172 80.1172 -80.1172 210.517 0 290.634s210.517 80.1172 290.634 0
c68.3301 -68.4336 78.1357 -173.274 29.8359 -252.349zM308.264 139.736c56.6455 56.749 56.6455 148.968 0 205.613c-56.6455 56.75 -148.863 56.75 -205.613 0c-56.75 -56.6455 -56.75 -148.864 0 -205.613c56.6455 -56.75 148.864 -56.75 205.613 0zM133.529 273.474
h144.69v-56.959h-144.69v56.959z" />
    <glyph glyph-name="uniF15B" unicode="&#xf15b;" 
d="M256 -64c-141.375 0 -256 114.625 -256 256s114.625 256 256 256s256 -114.625 256 -256s-114.625 -256 -256 -256zM177.842 326.896v-269.793l233.743 134.896z" />
    <glyph glyph-name="uniF119" unicode="&#xf119;" 
d="M448.262 -3.19238v0.104492h-384.523c-35.166 0 -63.7383 28.5732 -63.7383 63.7383v262.804c0 35.166 28.5723 63.7383 63.7383 63.7383h384.523c35.166 0 63.7383 -28.5723 63.7383 -63.7383v-262.908c0 -35.166 -28.5723 -63.7383 -63.7383 -63.7383zM65.2031 298.439
l121.721 -103.3l-122.349 -115.231c-6.2793 -5.96582 -6.59277 -15.9082 -0.62793 -22.1875c3.03516 -3.24512 7.22168 -4.91895 11.4082 -4.91895c3.87305 0 7.74512 1.46484 10.7803 4.29102l124.86 117.533l34.9561 -29.6182
c2.93066 -2.5127 6.48926 -3.76855 10.1523 -3.76855c3.55859 0 7.22168 1.25586 10.1523 3.76855l34.8516 29.6182l124.86 -117.429c3.03516 -2.82617 6.9082 -4.29102 10.7803 -4.29102c4.18652 0 8.26855 1.67383 11.4082 4.91895
c5.96582 6.2793 5.65137 16.2227 -0.62793 22.1875l-122.349 115.127l121.721 103.405c6.59375 5.54688 7.43066 15.4893 1.7793 22.083c-5.54785 6.59375 -15.4902 7.43066 -22.084 1.7793l-170.597 -144.746l-170.492 144.642
c-6.59375 5.65137 -16.4316 4.81445 -22.083 -1.7793c-5.65234 -6.59375 -4.81445 -16.4316 1.77832 -22.084z" />
    <glyph glyph-name="uniF10C" unicode="&#xf10c;" 
d="M512 192c0 -141.166 -114.834 -256 -256 -256s-256 114.834 -256 256s114.834 256 256 256s256 -114.834 256 -256zM256 365.453v-346.906c95.6084 0 173.453 77.8447 173.453 173.453s-77.8447 173.453 -173.453 173.453z" />
    <glyph glyph-name="uniF13C" unicode="&#xf13c;" 
d="M30.4062 161.594c0 93.4141 57.0518 173.767 138.24 207.935v-75.2324c-43.1543 -28.4219 -71.6797 -77.3232 -71.6797 -132.702c0 -87.667 71.3662 -159.034 159.033 -159.034s159.033 71.3672 159.033 159.034c0 55.3789 -28.5254 104.28 -71.6797 132.702v75.2324
c81.084 -34.168 138.24 -114.521 138.24 -207.935c0 -124.447 -101.251 -225.594 -225.594 -225.594s-225.594 101.146 -225.594 225.594zM256 448c18.3906 0 33.2275 -14.9424 33.2275 -33.2275v-153.183c0 -18.2852 -14.9414 -33.2275 -33.2275 -33.2275
s-33.2275 14.8379 -33.2275 33.2275v153.183c0 18.2852 14.8369 33.2275 33.2275 33.2275z" />
    <glyph glyph-name="uniF101" unicode="&#xf101;" 
d="M130.433 306.248c9.20312 0 16.6084 -7.51074 16.6084 -16.7139v-328.674c0 -9.20312 -7.40527 -16.6084 -16.6084 -16.6084h-113.824c-9.20312 0 -16.6084 7.40527 -16.6084 16.6084v328.779c0 9.2041 7.40527 16.6084 16.6084 16.6084h113.824zM113.719 -22.5312
v295.457h-80.502v-295.457h80.502zM495.391 218.976c9.20312 0 16.7139 -7.40527 16.6084 -16.6084v-241.507c0 -9.20312 -7.40527 -16.6084 -16.6084 -16.6084h-113.824c-9.20312 0 -16.6084 7.40527 -16.6084 16.6084v241.507c0 9.20312 7.40527 16.6084 16.6084 16.6084
h113.824zM398.175 185.653v-25.8115l25.8115 25.8115h-25.8115zM398.175 133.502v0v-26.3408l78.4922 78.4922h-26.3408zM478.782 -22.5312v25.917l-25.917 -25.917h25.917zM478.782 29.7266v0v26.3408l-78.5977 -78.5986h26.3398zM478.782 82.4072v26.3408
l-80.502 -80.5029v-26.3398zM478.782 135.088h-0.105469v26.2354l-80.502 -80.5029v-26.3398zM182.479 -39.1396v462.28c0 9.20312 7.40527 16.6084 16.6084 16.6084h113.825c9.20312 0 16.6074 -7.40527 16.6074 -16.6084v-462.28
c0 -9.20312 -7.4043 -16.6084 -16.6074 -16.6084h-113.825c-9.20312 -0.105469 -16.6084 7.40527 -16.6084 16.6084z" />
    <glyph glyph-name="uniF120" unicode="&#xf120;" 
d="M133.692 398.388c0 33.0749 16.5374 49.6123 49.6123 49.6123s49.6123 -16.5374 49.6123 -49.6123s-16.5374 -49.6123 -49.6123 -49.6123s-49.6123 16.5374 -49.6123 49.6123zM328.695 330.706c20.106 0 37.2483 -7.08939 51.4271 -21.2682
s21.2682 -31.3212 21.2682 -51.4271v-50.0303h-145.391h-145.391v50.0303c0 20.0537 7.10246 37.183 21.3074 51.3879c14.2049 14.2049 31.3342 21.3074 51.3879 21.3074s37.183 -7.10245 51.3879 -21.3074s21.3074 -31.3342 21.3074 -51.3879
c-1.52588e-05 20.0537 7.10245 37.183 21.3074 51.3879s31.3342 21.3074 51.3879 21.3074zM279.083 398.388c0 33.0749 16.5374 49.6123 49.6123 49.6123s49.6123 -16.5374 49.6123 -49.6123s-16.5374 -49.6123 -49.6123 -49.6123s-49.6123 16.5374 -49.6123 49.6123z
M60.9971 126.407c2.67029e-05 33.0749 16.5375 49.6123 49.6123 49.6123c33.0749 0 49.6123 -16.5374 49.6123 -49.6123s-16.5374 -49.6123 -49.6123 -49.6123c-33.0749 3.8147e-05 -49.6123 16.5375 -49.6123 49.6123zM206.388 126.407
c0 33.0749 16.5374 49.6123 49.6123 49.6123c33.0749 0 49.6123 -16.5374 49.6123 -49.6123s-16.5374 -49.6123 -49.6123 -49.6123c-33.0749 3.8147e-05 -49.6123 16.5375 -49.6123 49.6123zM401.391 58.7256c20.106 0 37.2483 -7.0894 51.4271 -21.2682
s21.2682 -31.3212 21.2682 -51.4271v-50.0303h-145.391h-145.391h-145.391v50.0303c0 20.0537 7.10246 37.183 21.3074 51.3879c14.2049 14.2049 31.3342 21.3074 51.3879 21.3074s37.183 -7.10246 51.3879 -21.3074s21.3074 -31.3342 21.3074 -51.3879
c0 20.0537 7.10246 37.183 21.3074 51.3879s31.3342 21.3074 51.3879 21.3074c20.0657 0 37.1981 -7.0924 51.397 -21.2772c14.1989 -14.1848 21.2983 -31.3242 21.2983 -51.4181c0 20.0537 7.10245 37.183 21.3074 51.3879s31.3342 21.3074 51.3879 21.3074z
M401.391 76.7949c-13.6706 0 -25.3439 4.84504 -35.0199 14.5351s-14.5401 21.3825 -14.5924 35.0772c0 13.7228 4.84506 25.4223 14.5352 35.0983s21.3825 14.514 35.0771 14.514c13.6826 0 25.372 -4.84807 35.0681 -14.5442s14.5442 -21.3855 14.5442 -35.0681
c0 -13.7228 -4.84506 -25.4223 -14.5352 -35.0983c-9.69012 -9.67602 -21.3825 -14.514 -35.0771 -14.514z" />
    <glyph glyph-name="uniF139" unicode="&#xf139;" 
d="M244.673 -59.9238c-106.306 88.2227 -153.553 169.441 -174.146 218.048c-5.95801 12.8564 -10.6611 26.4453 -13.7979 40.5566c-1.04492 4.18164 -1.3584 6.37695 -1.3584 6.37695v0c-3.55371 18.71 -4.7041 38.3613 -2.71777 58.6406
c9.8252 101.288 94.2852 180.626 195.991 184.18c116.132 3.97168 211.566 -88.9541 211.671 -204.04c0 -13.2754 -1.25391 -26.2373 -3.6582 -38.7803v0s-0.417969 -2.19531 -1.3584 -6.37695c-3.24121 -14.1113 -7.83984 -27.7002 -13.7979 -40.5566
c-20.5928 -48.7109 -67.9443 -129.825 -174.146 -218.048c-6.58496 -5.43555 -16.0977 -5.43555 -22.6826 0zM131.677 241.329c0 -68.5713 55.7139 -124.181 124.285 -124.181s124.285 55.5049 124.285 124.181c0 68.6748 -55.6094 124.284 -124.285 124.284
s-124.285 -55.7139 -124.285 -124.284z" />
    <glyph glyph-name="uniF13B" unicode="&#xf13b;" 
d="M512 154.348v0c0 -14.5303 -11.8125 -26.3428 -26.4463 -26.4473h-76.5186c-36.377 0 -65.96 -29.4775 -65.96 -65.96v-0.94043c0 -67.0059 -55.8203 -121.153 -123.348 -118.645c-64.2881 2.4043 -114.149 57.2842 -114.149 121.571v55.9248
c-60.2109 12.2305 -105.578 65.4375 -105.578 129.307v66.9014c0 9.51172 7.63086 17.1426 17.1436 17.1426h32.8232v83.7305c0 14.5303 12.4395 26.0293 27.1777 24.6699c12.9629 -1.25391 22.3701 -12.7529 22.3701 -25.7148v-82.6855h65.2285v83.7305
c0 14.5303 12.4395 26.1338 27.1787 24.6699c12.8574 -1.25391 22.2646 -12.7529 22.2646 -25.7148v-82.6855h32.7188c9.5127 0 17.1436 -7.63086 17.1436 -17.1426v-66.9014c0 -63.8691 -45.3672 -117.076 -105.578 -129.307v-58.9561
c0 -39.0957 34.2871 -70.4551 74.4277 -65.4375c33.4502 4.18164 57.3877 34.1826 57.4922 67.9463c0.314453 64.8096 52.8936 117.285 117.809 117.285h77.459c14.5293 0 26.3418 -11.8125 26.3418 -26.3418z" />
    <glyph glyph-name="uniF141" unicode="&#xf141;" 
d="M60.166 387.879c80.0391 80.1436 210.402 80.1436 290.546 0.104492c68.4258 -68.4248 78.2598 -173.26 29.9229 -252.357l117.181 -117.39c18.833 -18.833 18.833 -49.2793 0 -68.1123c-18.7275 -18.832 -49.2783 -18.832 -68.1113 0l-117.181 117.182
c-79.0967 -48.2324 -184.037 -38.3975 -252.357 29.9229c-80.1436 80.1436 -80.1436 210.507 0 290.65zM290.866 328.033c-47.082 47.0811 -123.772 47.0811 -170.854 0c-47.0811 -47.082 -47.0811 -123.772 0 -170.854c47.082 -47.0811 123.772 -47.0811 170.854 0
c47.0811 47.082 47.0811 123.772 0 170.854z" />
    <glyph glyph-name="uniF162" unicode="&#xf162;" 
d="M380.558 135.511l117.359 -117.255c18.7773 -18.7773 18.7773 -49.3428 0 -68.1201c-18.7773 -18.7783 -49.3428 -18.7783 -68.1211 0l-117.359 117.359c-79.1777 -48.3008 -184.02 -38.4941 -252.349 29.835c-80.1172 80.0127 -80.1172 210.412 0 290.529
c80.1172 80.1182 210.517 80.1182 290.634 0c68.3301 -68.4336 78.1357 -173.274 29.8359 -252.349zM308.264 139.684c56.6455 56.75 56.6455 148.969 0 205.614c-56.6455 56.749 -148.863 56.749 -205.613 0c-56.75 -56.6455 -56.75 -148.864 0 -205.614
c56.6455 -56.75 148.864 -56.75 205.613 0zM229.503 268.623h61.9658v-47.2568h-61.9658v-61.9658h-47.2568v61.9658h-61.8613v47.2568h61.9658v61.9658h47.2568v-61.9658h-0.104492z" />
    <glyph glyph-name="uniF140" unicode="&#xf140;" 
d="M395.39 153.112l-201.005 -201.005c-21.4766 -21.4766 -56.2979 -21.4766 -77.7744 0s-21.4766 56.2979 0 77.7754l162.117 162.117l-162.117 162.118c-21.4766 21.4766 -21.4766 56.2979 0 77.7744s56.2979 21.4766 77.7744 0l201.005 -201.005
c21.4766 -21.4766 21.4766 -56.2988 0 -77.7754z" />
    <glyph glyph-name="uniF130" unicode="&#xf130;" 
d="M248.953 380.341c-44.7891 -4.17676 -78.0938 -43.6406 -78.0938 -88.5342v-50.9492h172.892h67.1309h1.14844c22.4473 0 40.6133 -18.166 40.6133 -40.6123v-223.632c0 -22.4473 -18.166 -40.6133 -40.6133 -40.6133h-312.061
c-22.4473 0 -40.6133 18.166 -40.6133 40.6133v223.632c0 22.4463 18.166 40.6123 40.6133 40.6123h3.54883v49.6963c0 83.209 64.626 154.203 147.836 157.336c83.3135 3.13184 152.846 -60.4502 159.215 -141.467c0.521484 -6.47266 -4.59375 -12.1104 -11.1709 -12.1104
h-45.1025c-5.6377 0 -10.4404 4.17578 -11.0674 9.81348c-5.21973 45.7285 -46.25 80.7041 -94.2754 76.2148zM222.435 124.344c-7.41309 -16.4961 -2.61035 -35.1846 12.3193 -46.1465c2.92383 -2.19238 3.6543 -4.38477 3.6543 -7.72559
c-0.104492 -16.4961 -0.104492 -32.8877 -0.104492 -49.3828v-0.104492c0 -13.5723 14.3037 -23.8037 28.7109 -16.4961c6.05566 3.13281 9.50098 9.81445 9.1875 16.6006v0c0 16.3916 0 32.7822 -0.104492 49.1738c0 3.5498 0.834961 5.84668 3.96777 8.14355
c10.3359 7.5166 15.5557 18.0615 15.4512 30.7988c-0.104492 18.4795 -13.0508 33.4092 -31.5293 37.168c-16.7051 3.34082 -34.3496 -5.95117 -41.5527 -22.0293z" />
    <glyph glyph-name="uniF131" unicode="&#xf131;" 
d="M103.518 294.316c0 84.6719 68.9062 153.684 153.787 153.684c84.7773 0 153.684 -68.9072 153.684 -153.684v-53.4551h1.04395c22.4473 0 40.6143 -18.166 40.6143 -40.6133v-223.635c0 -22.4473 -18.167 -40.6133 -40.6143 -40.6133h-312.064
c-22.4473 0 -40.6143 18.166 -40.6143 40.6133v223.635c0 22.4473 18.167 40.6133 40.6143 40.6133h3.5498v53.4551zM279.961 78.4082c10.3359 7.5166 15.5566 18.0615 15.4521 30.7988c-0.104492 18.4795 -13.0508 33.4092 -31.5303 37.168
c-16.7051 3.34082 -34.3496 -5.95117 -41.5537 -22.0293c-7.41211 -16.4961 -2.60938 -35.1846 12.3203 -46.1465c2.92285 -2.19238 3.6543 -4.38477 3.6543 -7.72656c-0.104492 -16.4951 -0.104492 -32.8867 -0.104492 -49.3828v-0.104492
c0 -13.5723 14.3037 -23.8047 28.7109 -16.4961c6.05566 3.13184 9.50098 9.81445 9.1875 16.6006v0c0 16.3916 0 32.7832 -0.104492 49.1748c0 3.5498 0.835938 5.84668 3.96777 8.14355zM170.754 294.316v-53.4551h172.894v53.4551
c0 47.6084 -38.7334 86.4473 -86.4473 86.4473c-47.6084 0 -86.4463 -38.7344 -86.4463 -86.4473z" />
    <glyph glyph-name="uniF10E" unicode="&#xf10e;" 
d="M496.756 353.625c8.51562 0 15.3486 -6.83301 15.2432 -15.2432v-292.765c0 -8.41016 -6.83301 -15.2432 -15.2432 -15.2432h-368.558c-7.3584 0 -14.1914 3.46973 -18.7119 9.25098l-106.173 138.235c-4.30957 5.4668 -4.41504 13.1406 -0.31543 18.8174
l106.488 147.171c4.41504 6.09668 11.5635 9.77637 19.1328 9.77637h368.137zM367.981 147.271l-44.7812 44.7812l44.7812 44.6768l-34.1641 34.165l-44.7822 -44.5713l-44.7822 44.7812l-34.1641 -34.1641l44.7812 -44.7822l-44.7812 -44.7822l34.1641 -34.1641
l44.7822 44.7812l44.7822 -44.7812z" />
    <glyph glyph-name="uniF13A" unicode="&#xf13a;" 
d="M510.522 -30.1729c6.05273 -10.8154 -7.24414 -22.1279 -26.2959 -22.1279h-109.946h-236.463h-110.045c-19.0518 0 -32.3486 11.3125 -26.2959 22.1279l76.9023 136.837c6.15234 10.915 22.9219 18.3574 41.9746 18.457
c23.418 -32.9443 56.4609 -70.0557 102.702 -108.458c9.22754 -7.64062 20.9375 -11.9072 32.9434 -11.9072c12.0068 0 23.7158 4.2666 32.9443 11.9072c46.2412 38.501 79.2842 75.6133 102.702 108.458c19.0527 -0.198242 35.8223 -7.54199 41.9746 -18.457z
M412.98 279.323c0 -10.2207 -0.992188 -20.1436 -2.77832 -29.8682v0s-0.199219 -1.68652 -0.993164 -4.8623c-2.48047 -10.8154 -6.05273 -21.334 -10.6172 -31.1582c-15.877 -37.4092 -52.1943 -99.8242 -133.86 -167.598c-5.06055 -4.16797 -12.4033 -4.16797 -17.4639 0
c-81.666 67.7734 -118.083 130.188 -133.86 167.598c-4.56445 9.92383 -8.13672 20.3428 -10.6172 31.1582c-0.695312 3.17578 -0.993164 4.8623 -0.993164 4.8623v0c-2.77832 14.4873 -3.57227 29.5703 -2.08301 45.1494c7.44141 77.8945 72.4365 138.921 150.63 141.601
c89.3057 3.0752 162.637 -68.2705 162.637 -156.882zM256 181.979c52.7891 0 95.458 42.7676 95.458 95.458c0 52.6914 -42.7676 95.459 -95.458 95.459c-52.6914 0 -95.459 -42.6689 -95.459 -95.459c0 -52.6904 42.6689 -95.458 95.459 -95.458z" />
    <glyph glyph-name="uniF10B" unicode="&#xf10b;" 
d="M512 391.747h-0.105469v-268.08v0v-61.4531v0c-0.735352 -17.543 -15.126 -31.5137 -32.7744 -31.5137h-166.079c0.314453 -7.35352 4.41113 -40.7588 54.3086 -47.0615h-2.41602c7.87891 0 14.2871 -6.40723 14.2871 -14.2861s-6.4082 -14.2861 -14.2871 -14.2861
h-218.812c-7.87891 0 -14.2871 6.40723 -14.2871 14.2861s6.4082 14.2861 14.2871 14.2861h-1.57617c49.8975 6.30273 53.9941 39.708 54.3096 47.0615h-166.08c-17.6475 0 -32.1445 13.9707 -32.7744 31.5137v0v0.735352v0.630859v2.73047v0.630859v49.792v0.420898
v274.593c0 20.4844 16.7021 37.1865 37.1865 37.1865h437.627c20.4844 0 37.1865 -16.7021 37.1865 -37.1865zM256 49.293c10.085 0 18.1729 8.08887 18.1729 18.1738c0 9.97949 -8.19336 18.1729 -18.1729 18.1729s-18.1729 -8.08887 -18.1729 -18.1729
c0 -9.97949 8.08789 -18.1738 18.1729 -18.1738zM454.959 110.641v259.257h-397.918v-259.257h397.918z" />
    <glyph glyph-name="uniF14B" unicode="&#xf14b;" 
d="M197.527 164.755c7.75488 8.80176 16.8711 15.5088 26.8262 19.9102v0l191.974 99.0254c5.44922 2.62012 11.1084 -3.03906 8.48828 -8.48828l-99.0254 -191.974v0c-3.66797 -8.27832 -9.0127 -16.1377 -15.8232 -22.9482
c-14.9854 -14.9854 -34.5811 -22.5303 -54.2812 -22.5303c-20.1191 0 -40.3438 7.85938 -55.4336 23.6826c-27.0352 28.1885 -28.293 73.876 -2.72461 103.322zM232.527 137.719c-12.8896 -12.7842 -12.8896 -33.5322 0 -46.4209
c6.3916 -6.39258 14.7754 -9.64062 23.1582 -9.64062c8.48828 0 16.8711 3.24805 23.2637 9.64062c12.7842 12.7842 12.7842 33.6367 0 46.4209c-6.49707 6.39258 -14.8809 9.64062 -23.2637 9.64062s-16.7666 -3.24805 -23.1582 -9.64062zM461.282 90.25
c0 36.2568 -9.53613 71.8848 -27.6641 103.008c-7.02148 12.1553 -2.93457 27.6641 9.2207 34.6846c12.1562 7.02148 27.665 2.93457 34.6855 -9.2207c22.5293 -38.877 34.4756 -83.3076 34.4756 -128.472c0 -14.042 -11.3174 -25.3594 -25.3594 -25.3594
c-13.9365 0 -25.3584 11.3174 -25.3584 25.3594zM0 90.25c0 141.15 114.849 256 256 256c32.7988 0 64.7598 -6.07812 94.9395 -18.2334c12.9932 -5.23926 19.2812 -19.9102 14.1465 -32.9043c-5.24023 -12.9932 -19.9102 -19.2812 -32.9043 -14.1465
c-24.2061 9.64062 -49.8799 14.5654 -76.1816 14.5654c-113.172 0 -205.282 -92.1094 -205.282 -205.281c0 -14.042 -11.3174 -25.3594 -25.3584 -25.3594c-14.042 0 -25.3594 11.3174 -25.3594 25.3594z" />
    <glyph glyph-name="uniF11A" unicode="&#xf11a;" 
d="M256 344.598c97.8135 0 186.497 -53.5244 251.985 -140.634c5.35254 -7.13574 5.35254 -17.002 0 -24.1377c-65.4883 -87.0039 -154.172 -140.424 -251.985 -140.424s-186.497 53.5244 -251.985 140.633c-5.35254 7.13672 -5.35254 17.002 0 24.1387
c65.4883 87.0039 154.172 140.424 251.985 140.424zM263.031 84.5312c53.5254 3.46289 96.9746 46.9121 100.438 100.438c4.09375 64.9639 -49.4316 118.488 -114.396 114.396c-53.6299 -3.3584 -97.0791 -46.9131 -100.438 -100.438
c-4.09277 -64.9639 49.4316 -118.489 114.396 -114.396zM259.778 134.173c-34.9482 -2.2041 -63.8096 26.6572 -61.6055 61.6055c1.78418 28.8613 25.1875 52.2646 54.0488 54.0488c34.9482 2.2041 63.8096 -26.6572 61.6055 -61.6055
c-1.7832 -28.8613 -25.1875 -52.2656 -54.0488 -54.0488z" />
    <glyph glyph-name="uniF102" unicode="&#xf102;" 
d="M366.526 448c12.8008 0 23.208 -10.3037 23.208 -23.1045v-480.924c0 -6.76465 -8.01367 -10.4072 -13.1133 -5.82812l-112.295 100.64c-4.78809 4.2666 -11.8643 4.2666 -16.6523 0l-112.295 -100.743c-5.09961 -4.5791 -13.1133 -0.936523 -13.1133 5.82812v480.924
c0 12.8008 10.4072 23.208 23.208 23.208h221.053z" />
    <glyph glyph-name="uniF151" unicode="&#xf151;" 
d="M365.923 45.9229h-219.846c-80.667 0 -146.077 65.4111 -146.077 146.077s65.4102 146.077 146.077 146.077h219.846c80.667 0 146.077 -65.4111 146.077 -146.077s-65.4102 -146.077 -146.077 -146.077zM50.1553 192c0 -54.0215 43.8857 -97.9072 97.9072 -97.9072
c54.125 0 97.9062 43.7812 97.9062 97.9072s-43.8857 97.9072 -97.9062 97.9072c-54.126 0 -97.9072 -43.8857 -97.9072 -97.9072z" />
    <glyph glyph-name="uniF12B" unicode="&#xf12b;" 
d="M198.321 192c0 31.8691 25.8096 57.6787 57.6787 57.6787s57.6787 -25.8096 57.6787 -57.6787s-25.8096 -57.6787 -57.6787 -57.6787s-57.6787 25.8096 -57.6787 57.6787zM454.321 249.679c31.8701 0 57.6787 -25.8096 57.6787 -57.6787
s-25.8086 -57.6787 -57.6787 -57.6787c-31.8691 0 -57.6777 25.8096 -57.6777 57.6787s25.8086 57.6787 57.6777 57.6787zM57.6787 249.679c31.8691 0 57.6777 -25.8096 57.6777 -57.6787s-25.8086 -57.6787 -57.6777 -57.6787
c-31.8701 0 -57.6787 25.8096 -57.6787 57.6787s25.8086 57.6787 57.6787 57.6787z" />
    <glyph glyph-name="uniF111" unicode="&#xf111;" 
d="M93.8838 331.407l162.116 -162.116l162.116 162.116c21.4473 21.4473 56.3516 21.4473 77.7988 0c21.4463 -21.4473 21.4463 -56.3516 0 -77.7988l-201.016 -201.016c-21.4473 -21.4473 -56.3516 -21.4473 -77.7988 0l-201.016 201.016
c-21.4463 21.4473 -21.4463 56.3516 0 77.7988c21.4473 21.4473 56.3516 21.4473 77.7988 0z" />
    <glyph glyph-name="uniF10F" unicode="&#xf10f;" 
d="M512 275.839l-256 -316.272l-256 316.272l66.6328 148.595h378.734zM190.723 252.897l65.2773 -191.765l65.3818 191.765h-130.659zM315.751 119.215l108.239 133.683h-62.6709zM419.193 350.71l-29.6143 -43.7969h49.2188zM386.867 370.418h-85.5068l46.0908 -58.3955z
M303.237 306.913l-47.2373 59.959l-47.3418 -59.959h94.5791zM210.64 370.418h-85.5068l39.416 -58.3955zM92.8066 350.71l-19.6045 -43.7969h49.1152zM88.0098 252.897l108.239 -133.683l-45.5684 133.683h-62.6709z" />
    <glyph glyph-name="uniF14C" unicode="&#xf14c;" 
d="M256 448c141.166 0 256 -114.834 256 -256s-114.834 -256 -256 -256s-256 114.834 -256 256s114.834 256 256 256zM256 -4.54492c108.355 0 196.545 88.1895 196.545 196.545s-88.1895 196.545 -196.545 196.545s-196.545 -88.1895 -196.545 -196.545
s88.1895 -196.545 196.545 -196.545zM123.82 253.127c3.76172 8.04492 13.2705 11.4932 21.3164 7.73145c7.94043 -3.65723 11.4932 -13.2695 7.73145 -21.2109c-2.40332 -5.12012 -7.10449 -8.46387 -12.3291 -9.09082c-2.92578 -0.417969 -5.95605 0 -8.88184 1.3584
c-8.0459 3.65723 -11.5986 13.166 -7.83691 21.2119zM357.982 238.603c-3.65723 8.0459 -0.104492 17.5537 7.94043 21.2109c8.0459 3.65723 17.5547 0.104492 21.2119 -7.94043c3.65723 -8.0459 0.104492 -17.5547 -7.94141 -21.2119
c-1.46289 -0.626953 -2.92578 -1.04492 -4.38867 -1.25391c-6.89648 -1.04492 -13.792 2.6123 -16.8223 9.19531zM362.684 119.589c6.6875 -5.85156 7.31445 -15.8828 1.56738 -22.5703c-2.71582 -3.03027 -6.16406 -4.80664 -9.92578 -5.3291
c-4.38867 -0.626953 -9.09082 0.626953 -12.748 3.76172c-6.6875 5.85156 -7.31445 15.8828 -1.56738 22.5703c5.95605 6.6875 15.9873 7.31445 22.6738 1.56738zM239.804 321.045c0 8.77734 7.20996 15.9873 16.0918 15.8828c8.77734 0 15.9873 -7.20996 15.8828 -16.0918
c0 -8.0459 -5.95605 -14.7334 -13.793 -15.7783c-0.731445 -0.104492 -1.46289 -0.208984 -2.19434 -0.208984c-8.88184 0.208984 -15.9873 7.31445 -15.9873 16.1963zM169.796 118.544c5.74707 -6.6875 5.01562 -16.8232 -1.67188 -22.5703
c-2.40332 -2.08984 -5.3291 -3.34375 -8.25488 -3.76172c-5.22461 -0.731445 -10.6582 1.14941 -14.3145 5.43359c-5.74707 6.6875 -5.01562 16.8232 1.67188 22.5703c6.68652 5.74707 16.7178 5.01562 22.5693 -1.67188zM398.42 170.998
c-1.04492 -7.20996 -6.79199 -12.5391 -13.6885 -13.4795c-1.46289 -0.208984 -2.92578 -0.208984 -4.49316 0c-8.77734 1.25391 -14.7334 9.4043 -13.4795 18.1807c1.25391 8.67285 9.4043 14.7334 18.0771 13.4795c8.77734 -1.25391 14.8379 -9.4043 13.584 -18.1807z
M129.881 158.354v0c-8.77734 -1.25391 -16.8232 4.80664 -18.0771 13.583v0.313477v0.313477c-1.25391 8.77734 4.91113 16.8232 13.6885 18.0771s16.8232 -4.91113 18.0771 -13.6885v-0.313477v-0.208984c1.25391 -8.77637 -4.91113 -16.9268 -13.6885 -18.0762z
M199.68 309.551c4.70215 -7.52344 2.50781 -17.3447 -4.91113 -22.0469c-1.98535 -1.25391 -4.17871 -2.08984 -6.37305 -2.40332c-6.06055 -0.835938 -12.2256 1.77637 -15.6738 7.20996c-4.70215 7.52246 -2.50781 17.3447 4.91113 22.0469
c7.31445 4.80664 17.2402 2.6123 22.0469 -4.80664zM340.428 294.609l-47.2295 -88.6074c4.0752 -11.2852 3.23926 -24.2422 -3.76172 -35.1094c-11.8076 -18.3896 -36.3623 -23.8232 -54.7529 -12.0156c-18.3896 11.8076 -23.8232 36.3623 -12.0156 54.752
c6.89648 10.8672 18.3896 17.1367 30.3018 18.0771l60.5 80.0391c5.01465 6.6875 14.4189 8.35938 21.4199 3.86621c7.10547 -4.49316 9.50879 -13.584 5.53809 -21.002zM269.479 183.641c4.80664 7.41895 2.6123 17.3457 -4.91113 22.0479
c-7.41895 4.70215 -17.2412 2.50781 -22.0479 -4.91113c-4.70215 -7.41895 -2.50781 -17.2412 4.91113 -22.0479c7.41895 -4.70215 17.2412 -2.50781 22.0479 4.91113z" />
    <glyph glyph-name="uniF136" unicode="&#xf136;" 
d="M231.51 448v-231.51h-231.51c0 127.896 103.719 231.51 231.51 231.51zM187.447 260.553v138.048c-67.9248 -16.4326 -121.615 -70.0186 -138.048 -138.048h138.048zM280.49 399.019c127.791 0 231.51 -103.719 231.51 -231.509
c0 -127.896 -103.614 -231.51 -231.51 -231.51c-127.895 0 -231.509 103.719 -231.509 231.51h231.509v231.509z" />
    <glyph glyph-name="uniF118" unicode="&#xf118;" 
d="M314.097 381.858h-116.193v8.04492c0 32.0791 26.0186 58.0967 58.0967 58.0967s58.0967 -26.0176 58.0967 -58.0967v-8.04492zM197.903 346.018h116.193v-325.903l-58.0967 -84.1143l-58.0967 84.1143v325.903z" />
    <glyph glyph-name="uniF138" unicode="&#xf138;" 
d="M210.442 356.938v-210.442h210.442c0 -116.298 -94.25 -210.442 -210.442 -210.442c-116.192 -0.104492 -210.442 94.1445 -210.442 210.338c0 116.297 94.25 210.547 210.442 210.547zM512 192.366h-255.582v255.581h22.5693
c128.522 0 233.013 -104.489 233.013 -233.012v-22.5693zM301.558 376.999l20.6885 20.6895c-6.79102 1.56738 -13.6875 3.03027 -20.6885 3.86621v-24.5557zM301.558 326.426l58.2012 58.2012c-5.85156 2.82129 -11.8076 5.22461 -17.9727 7.41895l-40.2285 -40.2285
v-25.3916zM301.558 275.749l89.6523 89.6514c-4.91113 3.65723 -9.82227 7.10547 -15.0469 10.2402l-74.6055 -74.6055v-25.2861zM313.783 237.505l103.862 103.863c-4.0752 4.38867 -8.25488 8.67285 -12.6436 12.6436l-103.444 -103.55v-12.957h12.2256zM364.46 237.505
l75.0244 75.0244c-3.13477 5.22461 -6.6875 10.1348 -10.2402 15.0459l-90.0703 -90.0703h25.2861zM415.033 237.505l40.751 40.751c-2.19434 6.06055 -4.59766 12.1211 -7.41895 17.8682l-58.6182 -58.6191h25.2861zM465.606 237.505
c-0.835938 7.20996 -2.29883 14.3154 -3.9707 21.2119l-21.2109 -21.2119h25.1816z" />
    <glyph glyph-name="uniF137" unicode="&#xf137;" 
d="M0 146.491c0 116.23 94.2607 210.491 210.491 210.491v-210.491h210.491c0 -116.23 -94.2607 -210.491 -210.491 -210.491s-210.491 94.2607 -210.491 210.491zM512 214.911v-22.5977h-255.582v255.687h22.5977c128.471 0 232.984 -104.514 232.984 -233.089z
M465.55 237.509c-10.2529 85.6816 -78.3594 153.788 -164.041 164.041v-164.041h164.041z" />
    <glyph glyph-name="uniF115" unicode="&#xf115;" 
d="M56.0166 273.445v-282.547h282.547v123.811c14.0117 9.20215 26.7695 18.8223 38.8994 29.1748c2.92773 2.30078 8.67969 7.00586 16.1035 14.1172v-194.499c0 -15.1631 -12.3389 -27.502 -27.501 -27.502h-337.551c-15.1621 0 -27.501 12.3389 -27.501 27.502v337.445
c0 15.1621 12.3389 27.502 27.501 27.502h91.8125c-10.0391 -17.1494 -18.6133 -35.5537 -25.8291 -55.0039h-38.4814zM504.306 443.789c5.33301 -0.836914 8.78418 -7.73828 5.22852 -11.6074c-14.8486 -15.1621 -29.3838 -40.9912 -31.3711 -47.0557v0
c-6.37793 -11.7119 -12.1299 -25.8291 -17.7764 -38.5869c-0.522461 -1.35938 -1.25488 -3.55469 -1.88184 -4.80957c-10.7715 -23.6328 -83.7607 -33.9854 -83.7607 -33.9854l64.5195 -8.78418c-7.63379 -15.2666 -15.4766 -28.9658 -23.2148 -41.2002
c-0.208984 -0.313477 -0.417969 -0.731445 -0.626953 -1.04492c-0.417969 -0.836914 -0.941406 -1.56934 -1.46387 -2.19629c-31.998 -49.1475 -62.4277 -72.8848 -65.4609 -75.1855c-27.3965 -23.5283 -58.1406 -42.4551 -91.6025 -57.6182
c-24.8877 -11.293 -50.8203 -20.0771 -76.4404 -29.6973c-1.77734 -0.626953 -3.24121 -1.35938 -4.3916 -2.40527c-0.941406 -0.731445 -1.77734 -1.67285 -2.40527 -2.92773l-56.2578 -69.957c-12.7578 -12.2344 -8.99316 4.60156 -8.99316 4.60156
c21.2275 67.5518 53.6436 129.561 94.0078 187.597c34.8213 50.0889 74.6621 95.6816 122.241 134.163c28.2344 22.7959 58.5596 42.2461 92.5439 55.3174c0.314453 0.104492 0.732422 0.208984 1.0459 0.313477c0.941406 0.417969 1.88184 1.46387 1.46387 2.50977
c-11.9209 -4.07812 -23.1094 -7.63379 -34.8213 -12.3398c-63.8916 -25.4102 -115.444 -65.8779 -161.351 -116.699c-36.2861 -40.2588 -66.8203 -87.002 -85.1191 -136.985v0c-9.20215 -5.85645 -10.7715 -1.56934 -11.2939 1.35938
c-4.3916 31.5801 -7.11035 63.6826 1.56836 94.5303c26.7695 95.2627 86.165 157.69 172.436 192.617v0s63.3682 27.083 154.344 24.0508h0.104492l5.01953 -0.208984h0.313477v0c2.0918 -0.104492 4.07812 -0.208984 6.06543 -0.313477l3.3457 -0.105469v0
c13.0713 -0.731445 24.5742 -1.77734 33.9854 -3.3457z" />
    <glyph glyph-name="uniF117" unicode="&#xf117;" 
d="M497.107 381.636h-116.635v8.04688c0 32.1895 26.1279 58.3174 58.3174 58.3174s58.3174 -26.1279 58.3174 -58.3174v-8.04688zM361.139 -11.3262l36.1602 -52.6738h-356.278c-14.5273 0 -26.3369 11.8096 -26.3369 26.3369v0c0 14.5273 11.8096 26.3369 26.3369 26.3369
h320.118zM346.402 304.506v-52.6729h-305.382c-14.5273 0 -26.3369 11.8096 -26.3369 26.3369v0c0 14.5264 11.8096 26.3359 26.3369 26.3359h305.382zM346.402 199.264v-52.6738h-305.382c-14.5273 0 -26.3369 11.8096 -26.3369 26.3369v0
c0 14.5273 11.8096 26.3369 26.3369 26.3369h305.382zM346.402 94.0205v-52.6729h-305.382c-14.5273 0 -26.3369 11.8096 -26.3369 26.3359v0c0 14.5273 11.8096 26.3369 26.3369 26.3369h305.382zM380.577 347.46h116.739v-327.015l-53.0918 -76.7119
c-2.61328 -3.65723 -8.04785 -3.65723 -10.5557 0l-53.0918 76.7119v327.015z" />
    <glyph glyph-name="uniF116" unicode="&#xf116;" 
d="M488.454 339.295l-85.0088 85.2178l5.85547 5.85547c23.4219 23.5264 61.5869 23.5264 85.0088 -0.104492c23.5264 -23.5273 23.5264 -61.5869 0 -85.1133zM339.767 136.654l70.4746 70.4746v-255.759c0 -8.46875 -6.90039 -15.3701 -15.3701 -15.3701h-379.454
c-8.46973 0 -15.3711 6.90137 -15.3711 15.3701v379.455c0 8.46973 6.90137 15.3701 15.3711 15.3701h255.758l-70.4746 -70.4746h-130.18v-269.246h269.246v130.18zM377.096 398.163l85.1133 -85.1133l-238.819 -238.819l-104.144 -19.0303l19.0303 104.144z" />
    <glyph glyph-name="uniF15C" unicode="&#xf15c;" 
d="M0 143.123v97.9033c0 23.7412 19.2236 42.9648 42.9639 42.9648h88.7656l106.833 73.8477c11.1348 6.4082 25.001 -1.5752 25.001 -14.3916v-302.851c0 -12.8154 -13.8662 -20.9043 -25.001 -14.3916l-102.526 74.0586h-93.0723
c-23.7402 -0.105469 -42.9639 19.1182 -42.9639 42.8594zM381.847 85.8721v82.3564h-82.3574v47.7969h82.3574v82.3574h47.7959v-82.3574h82.3574v-47.7969h-82.3574v-82.3564h-47.7959z" />
    <glyph glyph-name="uniF12F" unicode="&#xf12f;" 
d="M99.8926 -64c-22.3613 0 -40.542 18.1816 -40.4375 40.542v223.713c0 22.3604 18.1807 40.542 40.542 40.542h3.55273v53.499c0 84.7412 68.9629 153.704 153.704 153.704s153.704 -68.9629 153.704 -153.704v-53.499h1.04492c22.3613 0 40.542 -18.1816 40.542 -40.542
v-223.713c0 -22.3604 -18.1807 -40.542 -40.542 -40.542h-312.11zM170.736 294.296v-53.499h173.035v53.499c0 47.751 -38.8701 86.5176 -86.5176 86.5176c-47.752 0 -86.5176 -38.8701 -86.5176 -86.5176z" />
    <glyph glyph-name="uniF126" unicode="&#xf126;" 
d="M282.411 448c23.6367 0 79.7998 -15.793 46.0186 -117.975c-33.6777 -102.182 0 -86.4932 0 -86.4932c7.73926 1.88184 14.9561 3.34668 21.7539 4.49707v0s97.3711 21.8584 133.244 -10.9824c28.7617 -26.251 6.48438 -60.9736 6.48438 -60.9736
s40.4756 -36.083 -0.732422 -79.0684c0 0 26.3564 -43.5088 -19.9756 -78.3359c0 0 21.5449 -59.9287 -64.4258 -78.2314c-25.3105 -5.43848 -57.1045 -5.22949 -87.1211 -2.82324c-74.9893 -1.56934 -149.77 8.15723 -149.77 8.15723l-48.3193 210.116
c14.7471 8.88965 21.6494 19.0352 24.8916 25.624c0.732422 2.0918 1.56934 4.39258 2.51074 6.79785v0v0c4.07812 9.83105 10.5625 21.8584 20.917 32.7363c48.3193 37.1279 98.835 176.438 98.835 176.438s-7.94824 50.5156 15.6885 50.5156zM133.165 -39.0635
c2.0918 -9.93555 -4.49707 -18.0938 -14.7471 -17.9893h-114.104l0.104492 210.012h69.8643c10.1445 0 20.1855 -8.1582 22.2773 -18.0938z" />
    <glyph glyph-name="uniF109" unicode="&#xf109;" 
d="M412.444 249.942c56.5732 -9.69238 99.6611 -62.1562 99.5557 -121.469c0 -63.4199 -49.4092 -118.308 -111.882 -122.732h-82.8047h-22.2285v111.25h50.7783c10.4297 0 15.5918 12.4307 8.42773 19.8057l-89.9688 92.6025c-4.5293 4.74023 -12.1152 4.74023 -16.75 0
l-89.9688 -92.6025c-7.16406 -7.375 -1.89648 -19.8057 8.42773 -19.8057h50.7783v-111.039h-22.334h-95.8682c-54.8877 3.05566 -98.6074 54.3604 -98.6074 109.985c0 38.3477 20.8594 71.9541 51.7266 89.9688c-2.84473 7.58496 -4.31934 15.8027 -4.31934 24.3359
c0 39.1895 31.7109 70.9004 70.9004 70.9004c8.42773 0 16.6455 -1.47461 24.2305 -4.31934c22.6504 48.1445 71.6377 81.4355 128.527 81.4355c73.8496 0 134.531 -56.3623 141.379 -128.316z" />
    <glyph glyph-name="uniF10D" unicode="&#xf10d;" 
d="M475.7 446.485c21.583 7.33398 42.1182 -13.2012 34.7842 -34.7842l-154.535 -457.004c-7.33398 -21.6875 -36.46 -25.459 -49.0322 -6.28613l-98.3789 150.029l171.089 210.272c4.81934 5.86719 -1.04785 11.7344 -6.91504 6.91504l-210.272 -171.089l-150.029 98.3789
c-19.1729 12.5723 -15.4014 41.6982 6.28613 49.0322z" />
    <glyph glyph-name="uniF15A" unicode="&#xf15a;" 
d="M457.741 235.155l-64.5234 37.29v-10.5791c0 -31.8438 -25.8721 -57.7158 -57.7158 -57.7158h-246.887c-31.8428 0 -57.7148 25.8721 -57.7148 57.7158v128.419c0 31.8428 25.8721 57.7148 57.7148 57.7148h246.887c31.8438 0 57.7158 -25.8721 57.7158 -57.7148
v-10.5801l64.5234 37.29c10.3701 5.9707 23.3584 -1.4668 23.3584 -13.5127v-154.814c-0.104492 -12.0459 -12.9883 -19.4834 -23.3584 -13.5127zM335.397 -49.2305c-7.54102 -7.54199 -19.5869 -7.54199 -27.0244 -0.105469l-81.7021 81.7021v-77.1973
c0 -10.5801 -8.58887 -19.1689 -19.168 -19.1689c-10.5801 0 -19.1689 8.58887 -19.1689 19.1689v77.1973l-81.7021 -81.7021c-7.54199 -7.43652 -19.6924 -7.43652 -27.1289 0c-7.4375 7.54199 -7.4375 19.6924 0 27.1299l106.107 106.107
c0.837891 0.838867 1.78125 1.3623 2.72363 1.78125v48.707h-51.1162c-10.5791 0 -19.1689 8.58887 -19.1689 19.1689c0 10.5791 8.58984 19.168 19.1689 19.168h140.465c10.5791 0 19.168 -8.58887 19.168 -19.168c0 -10.5801 -8.58887 -19.1689 -19.168 -19.1689h-51.1162
v-48.707c0.942383 -0.418945 1.88574 -0.942383 2.72363 -1.78125l106.107 -106.003c7.4375 -7.54199 7.4375 -19.6924 0 -27.1289z" />
    <glyph glyph-name="uniF12C" unicode="&#xf12c;" 
d="M487.419 314.866c1.89062 -6.72266 8.19336 -11.3447 15.2314 -11.2402h9.34961v-32.0391h-9.34961c-7.03809 0 -13.3408 -4.62207 -15.2314 -11.4502c-12.0801 -43.1748 -51.5781 -74.8984 -98.5342 -74.8984c-53.4688 0 -97.4834 41.1787 -102.001 93.4922
c-4.9375 12.1855 -16.9121 20.7988 -30.8838 20.7988c-14.1816 0 -26.2617 -8.92871 -31.0938 -21.3242c-4.62207 -50.3174 -46.6416 -90.7607 -97.4844 -92.8623c-48.8467 -1.99512 -90.4453 30.3594 -102.841 74.8994c-1.89062 6.72266 -8.19336 11.3447 -15.2314 11.3447
h-9.34961v32.0391h9.34961c7.03809 0 13.3408 4.62207 15.2314 11.4502c12.0801 43.1748 51.5781 74.8984 98.5342 74.8984c42.7539 0 79.5205 -26.4717 94.7529 -63.8682c11.0293 7.03809 24.0557 11.1348 38.1318 11.1348s27.207 -4.20215 38.2373 -11.2402
c14.8115 36.0312 49.792 62.083 90.3408 63.7637c48.8467 1.99609 90.4453 -30.3584 102.841 -74.8984zM123.115 216.227c39.2881 0 71.2217 31.9346 71.2217 71.2227c0 39.2871 -31.9336 71.2217 -71.2217 71.2217c-39.2871 0 -71.2217 -31.9346 -71.2217 -71.2217
c0 -39.2881 31.9346 -71.2227 71.2217 -71.2227zM388.885 216.227c39.2871 0 71.2217 31.9346 71.2217 71.2227c0 39.2871 -31.9346 71.2217 -71.2217 71.2217c-39.2881 0 -71.2217 -31.9346 -71.2217 -71.2217c0 -39.2881 31.9336 -71.2227 71.2217 -71.2227z
M506.853 98.1553c-12.5 -38.4473 -44.54 -99.9004 -123.22 -103.892c-62.6084 -3.15137 -105.678 25.4209 -127.633 56.9355c-21.9551 -31.5146 -65.1289 -60.0869 -127.633 -56.9355c-78.6797 3.99121 -110.824 65.5488 -123.22 103.892
c-0.945312 3.15137 -5.46289 19.2236 8.19336 10.6094c1.4707 -1.15527 2.94141 -2.31055 4.62207 -3.36133v0v0c8.08887 -5.25195 19.0137 -9.4541 33.7207 -10.1895c42.5439 -2.10156 79.8359 70.9062 139.397 67.9658
c15.2314 -0.735352 36.3457 -4.41211 64.8135 -32.7754c28.4678 28.3633 49.4775 32.04 64.8145 32.7754c59.5615 2.94043 96.8535 -70.0674 139.397 -67.9658c14.707 0.735352 25.6318 4.9375 33.7207 10.1895v0v0c1.68066 1.05078 3.25586 2.20605 4.72656 3.36133
c13.7617 8.61328 9.34961 -7.35449 8.29883 -10.6094z" />
    <glyph glyph-name="uniF154" unicode="&#xf154;" 
d="M59.8779 100.561v0h77.5693v34.7539c-48.3633 14.1328 -84.8965 48.6777 -93.7949 90.9688c-2.19824 10.3633 5.65332 20.0996 16.2256 20.0996h77.5693v34.7539c-48.3633 14.1318 -84.8965 48.6777 -93.7949 90.9688c-2.19824 10.3633 5.65332 20.0986 16.2256 20.0986
h77.4648v29.1016c0 14.7607 11.9336 26.6943 26.6943 26.6943h184.449c14.7607 0 26.6943 -11.9336 26.6943 -26.6943v-29.3105h76.9414c10.5723 0 18.4238 -9.73535 16.2256 -20.0986c-8.89844 -42.083 -45.1182 -76.5234 -93.167 -90.7598v-34.8594h76.9414
c10.5723 0 18.4238 -9.73535 16.2256 -20.0986c-8.89844 -42.082 -45.1182 -76.5225 -93.167 -90.7598v-34.8584h76.9414c10.5723 0 18.4238 -9.73535 16.2256 -20.0996c-8.89844 -42.082 -45.1182 -76.5225 -93.167 -90.7588v-27.0078
c0 -14.7607 -11.9336 -26.6943 -26.6943 -26.6943h-184.345c-14.7607 0 -26.6943 11.9336 -26.6943 26.6943v26.7979c-48.3633 14.1328 -84.8965 48.6777 -93.7949 90.9688c-2.19824 10.3643 5.65332 20.0996 16.2256 20.0996zM256.262 384.667
c-28.4736 0 -51.5039 -23.0293 -51.5039 -51.5029s23.0303 -51.5039 51.5039 -51.5039s51.5039 23.0303 51.5039 51.5039s-23.0303 51.5029 -51.5039 51.5029zM256.262 238.846c-28.4736 0 -51.5039 -23.0303 -51.5039 -51.5039s23.0303 -51.5039 51.5039 -51.5039
s51.5039 23.0303 51.5039 51.5039s-23.0303 51.5039 -51.5039 51.5039zM256.262 93.0234c-28.4736 0 -51.5039 -23.0303 -51.5039 -51.5039s23.0303 -51.5039 51.5039 -51.5039s51.5039 23.0303 51.5039 51.5039s-23.0303 51.5039 -51.5039 51.5039z" />
    <glyph glyph-name="uniF105" unicode="&#xf105;" 
d="M512 41.7979c0 -36.3779 -29.6025 -66.085 -66.085 -66.085h-379.83c-36.4824 0 -66.085 29.707 -66.085 66.085v300.404c0 36.4814 29.707 66.085 66.085 66.085h379.83c36.4824 0 66.085 -29.707 66.085 -66.085v-300.404zM420.795 370.971
c-14.9053 0 -26.9971 -12.0908 -26.9971 -26.9971c0 -14.9053 12.0918 -26.9961 26.9971 -26.9961s26.9971 12.0908 26.9971 26.9961c0 14.9062 -12.0918 26.9971 -26.9971 26.9971zM341.89 370.971c-14.9062 0 -26.9971 -12.0908 -26.9971 -26.9971
c0 -14.9053 12.0908 -26.9961 26.9971 -26.9961v0v0c13.0293 0 23.9736 9.27637 26.4756 21.5762c0.3125 1.77246 0.520508 3.54395 0.520508 5.41992c0 1.87695 -0.208008 3.64844 -0.520508 5.4209c-2.50195 12.2988 -13.4463 21.5762 -26.4756 21.5762v0v0z
M262.983 370.971c-14.9053 0 -26.9961 -12.0908 -26.9961 -26.9971c0 -14.9053 12.0908 -26.9961 26.9961 -26.9961c14.9062 0 26.9971 12.0908 26.9971 26.9961c0 14.9062 -12.0908 26.9971 -26.9971 26.9971zM469.159 41.7979h0.104492v241.512h-426.423v-241.512
c0 -12.8203 10.4229 -23.2441 23.2441 -23.2441h379.83c12.8213 0 23.2441 10.4238 23.2441 23.2441z" />
    <glyph glyph-name="uniF122" unicode="&#xf122;" 
d="M42.7012 170.23c-27.4209 27.4209 -42.5967 63.8428 -42.7012 102.567c0 38.8291 15.0713 75.3555 42.4922 102.777c27.4209 27.4209 63.8428 42.4922 102.567 42.4922c38.8291 0 75.3555 -15.0713 102.882 -42.5977l8.16309 -8.16309l7.9541 7.9541
c27.5264 27.4209 63.9482 42.5967 102.777 42.5967s75.251 -15.0703 102.672 -42.4922c27.4209 -27.4209 42.4922 -63.9473 42.4922 -102.776c0 -38.7246 -15.1758 -75.251 -42.5967 -102.672l-197.495 -197.495c-4.18652 -4.18652 -9.83789 -6.48926 -15.6992 -6.48926
c-5.86035 0 -11.5127 2.30273 -15.6992 6.48926z" />
    <glyph glyph-name="uniF121" unicode="&#xf121;" 
d="M223.102 250.327c0 37.1361 18.5684 55.7041 55.7051 55.7041c37.1361 0 55.7041 -18.568 55.7041 -55.7041c0 -37.1361 -18.568 -55.7041 -55.7041 -55.7041c-37.1367 0 -55.7051 18.568 -55.7051 55.7041zM474.818 256.086
c1.35193 -51.1606 -14.6682 -95.9754 -48.0605 -134.444v-88.8965c0 -9.32243 -4.43262 -15.5002 -13.2979 -18.5332l-227.319 -77.4834c-4.28983 -1.46474 -8.25926 -0.898117 -11.9083 1.69987c-3.64903 2.59799 -5.47354 6.14986 -5.47354 10.6556v47.5371h-54.0293
c-9.58057 0 -17.7521 3.38123 -24.5145 10.1437s-10.1437 14.934 -10.1437 24.5145v94.7607h-25.8623c-6.75903 0.000480652 -11.7544 2.95406 -14.9862 8.86072c-3.23178 5.90715 -3.01795 11.714 0.641479 17.4205c6.98812 10.8259 15.3996 25.6593 25.2344 44.5
c9.98177 19.207 14.9727 39.7297 14.9727 61.5684v5.44434h0.524414c3.58425 54.133 25.9137 99.251 66.9885 135.354c41.0747 36.1029 89.1782 52.204 144.31 48.3033c50.0312 -3.50647 92.6858 -23.7274 127.964 -60.6628
c35.2785 -36.9357 53.5985 -80.5165 54.9599 -130.742zM406.025 227.71c5.375 0.955811 8.0625 4.09709 8.0625 9.42383v12.6699v12.6699c0 5.39639 -2.6875 8.57251 -8.0625 9.52832l-25.3389 4.29297c-2.4082 9.52832 -6.17773 18.6377 -11.3086 27.3281l14.8691 20.9414
c3.16846 4.50995 2.81918 8.69843 -1.04785 12.5654l-9.00488 9.00488l-9.00488 9.00488c-3.95132 3.7037 -8.10464 3.9827 -12.46 0.836914l-20.8369 -14.8682c-8.50937 5.08508 -17.6187 8.85461 -27.3281 11.3086l-4.29297 25.3389
c-0.836609 5.375 -4.01273 8.0625 -9.52832 8.0625h-12.6699h-12.6689c-5.39905 0 -8.57547 -2.6875 -9.5293 -8.0625l-4.29297 -25.3389c-10.0069 -2.47488 -19.3256 -6.38406 -27.9561 -11.7275l-20.7324 14.7637c-4.50928 3.1691 -8.69743 2.82016 -12.5645 -1.04688
l-9.00488 -9.00488l-9.00488 -9.00488c-3.86673 -3.86926 -4.21602 -8.0574 -1.04785 -12.5645l14.9736 -21.1514c-4.86862 -8.3165 -8.56816 -17.4259 -11.0986 -27.3281l-25.1299 -3.97949c-5.375 -0.83548 -8.0625 -4.0116 -8.0625 -9.52832v-12.6689v-12.6699
c0 -5.39729 2.6875 -8.57339 8.0625 -9.52832l25.5479 -4.29297c2.58324 -9.79205 6.42276 -18.8666 11.5186 -27.2236l-14.7637 -20.7324c-3.16911 -4.50928 -2.82016 -8.69743 1.04688 -12.5645l9.00488 -9.00488l9.00488 -9.00488
c3.86749 -3.86674 8.05565 -4.21602 12.5645 -1.04785l21.1514 14.9736c8.3165 -4.86919 17.4259 -8.56873 27.3281 -11.0986l4.18848 -25.1299c0.955811 -5.375 4.13193 -8.0625 9.52832 -8.0625h12.6699h12.6689c5.39752 0 8.57364 2.6875 9.52832 8.0625l4.08398 25.5479
c9.25485 2.41989 18.1201 6.11977 26.5957 11.0996l20.9414 -14.8682c4.50925 -3.16911 8.69742 -2.82016 12.5645 1.04688l9.00488 9.00488l9.00488 9.00488c3.86676 3.86739 4.21603 8.05554 1.04785 12.5645l-14.8691 20.8369
c5.08511 8.50938 8.85464 17.6188 11.3086 27.3281z" />
    <glyph glyph-name="uniF15D" unicode="&#xf15d;" 
d="M509.163 -1.28125c8.0459 -13.8965 -1.98535 -31.2412 -17.9707 -31.2412h-470.385c-15.9854 0 -26.0166 17.3447 -17.9707 31.2412l235.088 407.38c8.04492 13.8965 28.001 13.8965 36.0459 0zM281.076 22.8535v51.0928h-51.0928v-51.0928h51.0928zM282.017 105.396
v173.233h-52.0332v-173.233h52.0332z" />
    <glyph glyph-name="uniF100" unicode="&#xf100;" 
d="M439.67 383.451c46.793 -43.0312 70.084 -95.1504 70.084 -156.148c0 -48.1494 -14.3086 -89.3018 -42.8232 -123.352c-28.5137 -34.1543 -62.3545 -51.1797 -101.522 -51.1797c-26.6338 0 -46.792 10.2363 -60.4746 30.8125
c-18.1738 -21.4121 -40.0029 -32.1699 -65.5928 -32.1699c-28.6191 0 -53.0596 12.0117 -73.4268 36.2432c-20.3672 24.1279 -30.498 55.9834 -30.498 95.3604c0 40.3164 11.3848 73.3223 34.3633 98.9111c22.873 25.5898 50.4473 38.4365 82.6172 38.4365
c20.2627 0 38.959 -6.99805 55.9834 -20.8887l4.28223 15.5625h66.8467l-19.4268 -158.864c-1.14941 -10.8623 -1.77637 -20.2627 -1.77637 -28.3057c0 -9.92188 4.5957 -14.8311 13.7871 -14.8311c17.0254 0 33.4229 10.6533 49.1953 32.1699
c15.7715 21.4111 23.709 48.3584 23.709 80.6328c0 47.21 -17.2334 86.3779 -51.7012 117.503s-76.7686 46.6885 -126.799 46.6885c-54.3125 0 -100.165 -19.0098 -137.348 -56.8193c-37.2881 -37.915 -55.9844 -85.125 -55.9844 -141.735
c0 -52.1191 17.4434 -97.5537 52.2236 -136.199c34.8857 -38.749 84.0801 -58.0723 147.584 -58.0723c39.8984 0 80.8418 8.98242 122.621 26.9473c16.1895 6.89355 34.7812 -0.626953 41.3613 -16.9199v0c6.37109 -15.7715 -1.25391 -33.7373 -16.9209 -40.4219
c-48.0459 -20.5752 -97.0312 -30.8115 -146.957 -30.8115c-82.8262 0 -148.628 25.1719 -197.614 75.5156c-48.7764 50.3428 -73.2168 110.4 -73.2168 180.275c0 72.9043 25.6934 133.797 76.9775 182.782c51.2832 48.9863 113.429 73.4268 186.333 73.4268
c69.3535 0 127.426 -21.5156 174.113 -64.5488zM285.715 143.119c11.8027 15.9805 17.7568 34.1543 17.8604 54.7295c0 16.5029 -4.80371 29.6631 -14.4131 39.5859s-20.5762 14.8311 -32.9014 14.8311c-14.2041 0 -26.1113 -6.68457 -35.7207 -19.8447
s-14.4131 -30.498 -14.4131 -52.0146c0 -17.4424 3.44629 -31.9609 10.3398 -43.6592c6.78906 -11.6973 15.7715 -17.5469 26.9473 -17.5469c16.3984 0 30.499 8.04297 42.3008 23.9189z" />
    <glyph glyph-name="uniF11D" unicode="&#xf11d;" 
d="M369.771 119.523l-186.248 186.248c20.9619 13.416 45.8027 21.2773 72.5293 21.2773c74.415 0 134.891 -60.4756 134.891 -134.892c0 -26.8311 -7.75586 -51.6719 -21.1719 -72.6338zM256.053 57.1611c-74.416 0 -134.892 60.4756 -134.996 134.892
c0 26.7266 7.86035 51.5664 21.2764 72.5283l186.248 -186.144c-20.9619 -13.416 -45.8018 -21.2764 -72.5283 -21.2764zM0 192.053c0 141.39 114.663 255.947 256.053 255.947s255.947 -114.558 255.947 -255.947s-114.663 -256.053 -256.053 -256.053
s-255.947 114.663 -255.947 256.053zM62.2578 192.053c0 -106.907 86.9922 -193.795 193.795 -193.795c106.906 0 193.795 86.9922 193.795 193.795c0 106.802 -86.8887 193.795 -193.795 193.795c-106.907 0 -193.795 -86.8887 -193.795 -193.795z" />
    <glyph glyph-name="uniF153" unicode="&#xf153;" 
d="M143.854 195.495c-36.624 24.833 -60.7266 66.7783 -60.7266 114.357c0 76.1689 61.874 138.147 138.043 138.147s138.147 -61.9785 138.147 -138.147c0 -40.9014 -17.9473 -77.5244 -46.2236 -102.88l-12.5205 104.028
c-1.35645 41.9443 -35.9971 75.6465 -78.2559 75.6465c-41.8398 0 -75.751 -32.2412 -78.1504 -73.7686c-0.104492 -1.14746 -0.104492 -2.19141 -0.104492 -3.33887v-81.5947zM485.569 79.6768c0 0 14.7119 -74.499 -2.71289 -143.677h-378.34
c-51.4395 48.8311 -83.8896 94.5332 -83.8896 94.5332c50.71 55.7178 111.958 1.66895 111.958 1.66895l47.7881 -36.832l1.56445 232.158v81.9072v0c0.625977 21.8076 18.4688 39.2324 40.3799 39.2324c22.3291 0 40.3799 -18.0508 40.3799 -40.3799l18.1553 -150.877
s120.618 -20.0332 204.717 -77.7344z" />
    <glyph glyph-name="uniF155" unicode="&#xf155;" 
d="M418.116 52.5928l-162.116 162.116l-162.116 -162.116c-21.4473 -21.4473 -56.3516 -21.4473 -77.7988 0c-21.4463 21.4473 -21.4463 56.3516 0 77.7988l201.016 201.016c21.4473 21.4473 56.3516 21.4473 77.7988 0l201.016 -201.016
c21.4463 -21.4473 21.4463 -56.3516 0 -77.7988c-21.4473 -21.4473 -56.3516 -21.4473 -77.7988 0z" />
    <glyph glyph-name="uniF146" unicode="&#xf146;" 
d="M255.948 416.398c141.346 0 255.947 -100.499 256.052 -224.398c0 -123.899 -114.602 -224.398 -255.947 -224.398c-51.2949 0 -99.0361 13.2676 -139.048 36.042c-36.042 -21.625 -75.1133 -20.8936 -97.7822 -17.7598
c-6.47754 0.94043 -8.14941 9.29785 -2.7168 12.8496c21.834 14.417 33.8477 34.4746 40.4297 52.2344c-35.624 38.5488 -56.9355 87.6484 -56.9355 141.032c0 123.899 114.602 224.398 255.948 224.398zM255.948 333.241c-28.416 0 -51.5039 -23.0869 -51.5039 -51.5029
c0 -28.415 23.0879 -51.5029 51.5029 -51.5029c28.416 0 51.5039 23.0879 51.5039 51.5029c0 28.416 -23.0879 51.5029 -51.5029 51.5029zM347.984 78.9648v35.1016c0 50.7715 -41.2646 92.0371 -92.0361 92.0371c-50.7725 0 -92.0371 -41.1611 -92.0371 -92.0371v-35.1016
c25.9082 -16.2969 57.667 -25.9082 92.0371 -25.9082s66.1279 9.61133 92.0361 25.9082z" />
    <glyph glyph-name="uniF107" unicode="&#xf107;" 
d="M279.748 444.286c132.342 -17.0527 232.043 -130.668 232.252 -264.265c0 -28.0381 -4.39355 -55.6572 -13.0771 -82.335l-7.42773 -22.9111l-143.117 68.002l3.1377 16.1113c1.36035 7.00879 2.09277 14.123 2.09277 21.1328
c0 49.6934 -33.582 92.7959 -81.7061 104.932l-16.0068 3.97559v158.392zM464.922 134.198c3.13867 15.0654 4.70801 30.3398 4.70801 45.8232c0 104.304 -72.1865 194.066 -171.469 218.023v-77.1035c58.167 -21.7607 97.6084 -77.5215 97.6084 -140.92
c0 -4.28906 -0.208984 -8.47461 -0.523438 -12.7637zM0 180.021c0 124.809 93.1104 227.753 213.734 243.341v-118.009c-56.0752 -14.123 -97.6084 -64.8633 -97.6084 -125.332c0 -60.4697 41.5332 -111.209 97.6084 -125.332v-118.01
c-120.52 15.5889 -213.734 118.532 -213.734 243.342zM277.028 54.6895c26.9912 6.7998 50.7393 22.1787 68.002 42.9971l106.501 -50.6348c-38.291 -59.2139 -101.271 -100.852 -174.503 -110.268v117.905z" />
    <glyph glyph-name="uniF11E" unicode="&#xf11e;" 
d="M2.30371 271.94l-2.19922 158.416c-0.104492 8.0625 6.49219 14.6582 14.5537 14.5537l158.416 -2.30371c12.6689 -0.208984 18.9512 -15.4961 9.94727 -24.5l-44.0801 -44.0801l73.292 -73.293l-68.0566 -68.0566l-73.293 73.292l-44.0801 -44.0801
c-8.89941 -8.89941 -24.291 -2.61719 -24.5 10.0518zM441.115 305.026l-73.293 -73.1875l-68.0566 68.0576l73.292 73.292l-43.9756 43.8711c-9.00391 9.00391 -2.72168 24.291 9.94727 24.5l158.416 2.30371c8.0625 0.104492 14.6582 -6.49219 14.5537 -14.5537
l-2.30371 -158.416c-0.208984 -12.6689 -15.4961 -18.9512 -24.5 -9.94727zM328.978 -34.1074l43.9756 43.9756l-73.292 73.292l68.0566 68.0576l73.292 -73.293l44.0801 44.0801c9.00488 9.00488 24.291 2.72266 24.501 -9.94629l2.30371 -158.416
c0.104492 -8.0625 -6.49219 -14.6582 -14.5537 -14.5537l-158.416 2.30371c-12.6689 0.208984 -18.9512 15.4961 -9.94727 24.5zM14.6582 -59.8643c-8.06152 -0.104492 -14.6582 6.49121 -14.6582 14.5537l2.30371 158.416c0.208984 12.6689 15.4961 18.9512 24.5 9.94727
l44.0801 -44.0801l73.293 73.292l68.0566 -68.0576l-73.292 -73.292l44.0801 -43.9756c9.00391 -9.00391 2.72168 -24.291 -9.94727 -24.5z" />
    <glyph glyph-name="uniF12D" unicode="&#xf12d;" 
d="M502.126 222.562c13.8848 8.76953 9.39551 -7.5166 8.35156 -10.7529c-12.6318 -38.9395 -45.2031 -101.367 -124.961 -105.334c-63.4717 -3.13184 -107.214 25.8896 -129.554 57.835c-22.3408 -32.0498 -66.083 -61.0713 -129.555 -57.835
c-79.7578 3.9668 -112.329 66.3945 -124.961 105.334c-0.939453 3.23633 -5.42871 19.5225 8.35156 10.7529c1.46094 -1.14844 3.02734 -2.29688 4.69727 -3.44531v0v0c8.14258 -5.32324 19.3135 -9.60352 34.2422 -10.335
c43.1152 -2.19238 81.0107 71.9287 141.455 68.9014c15.5547 -0.731445 36.8516 -4.38477 65.7695 -33.1982c28.917 28.709 50.3184 32.4668 65.7686 33.1982c60.4443 3.02734 98.3398 -71.0938 141.455 -68.9014c14.9287 0.731445 25.9951 5.01172 34.2422 10.335v0v0
c1.66992 1.14844 3.23633 2.29688 4.69727 3.44531z" />
    <glyph glyph-name="uniF14E" unicode="&#xf14e;" 
d="M20.9912 208.509l-9.64355 13.3125c-11.1104 15.3037 -6.39355 36.8965 10.168 46.1211l14.2559 7.86133c11.8447 6.60449 18.1338 19.916 15.7227 33.2285l-2.93457 16.0381c-3.45898 18.6582 10.2725 36.0586 29.1406 37.1064l16.2471 0.943359
c13.417 0.733398 24.9473 10.0625 28.5107 23.0605l4.29785 15.7236c5.03125 18.2383 24.8428 27.9863 42.3477 20.7539l15.0947 -6.18457c12.4736 -5.13574 26.834 -1.67676 35.7441 8.49121l10.6914 12.2637c12.3691 14.2559 34.4863 14.3604 47.1699 0.314453
l10.9014 -12.1592c9.01465 -10.0625 23.4795 -13.207 35.8486 -7.86133l14.9893 6.39355c17.4004 7.54785 37.4209 -1.99121 42.6621 -20.125l4.50781 -15.6191c3.77344 -12.8926 15.4082 -22.1172 28.9307 -22.6406l16.2471 -0.734375
c18.8672 -0.837891 32.8086 -18.0293 29.6641 -36.6875l-2.72559 -16.0371c-2.30566 -13.417 4.19336 -26.625 16.1426 -33.0186l14.3604 -7.65234c16.667 -8.90918 21.6982 -30.5029 10.7969 -45.9111l-9.43359 -13.3125
c-7.75684 -11.0068 -7.65234 -25.7861 0.314453 -36.6875l9.64355 -13.208c11.1104 -15.3037 6.39355 -36.8965 -10.168 -46.1211l-14.2559 -7.86133c-11.8447 -6.60352 -18.1338 -19.916 -15.7227 -33.2285l2.93457 -16.0371
c3.45898 -18.6582 -10.2725 -36.0586 -29.1396 -37.1074l-16.248 -0.943359c-13.417 -0.837891 -24.9473 -10.167 -28.5107 -23.165l-4.29785 -15.7236c-5.03125 -18.2383 -24.8428 -27.9873 -42.3477 -20.7539l-15.0947 6.18457
c-12.4736 5.13574 -26.834 1.67676 -35.7441 -8.49121l-10.6914 -12.2637c-12.3691 -14.2559 -34.4863 -14.3604 -47.1699 -0.314453l-10.9014 12.1592c-9.01465 10.0625 -23.4795 13.207 -35.8486 7.86133l-14.9893 -6.39355
c-17.4004 -7.54785 -37.4209 1.99121 -42.6621 20.125l-4.50781 15.6191c-3.77344 12.8926 -15.4082 22.1172 -28.9307 22.6406l-16.2471 0.734375c-18.8672 0.837891 -32.8086 18.0293 -29.6641 36.6875l2.72559 16.0371c2.30566 13.417 -4.19336 26.625 -16.1426 33.0186
l-14.3604 7.65234c-16.667 8.90918 -21.6982 30.5029 -10.7969 45.9111l9.43359 13.3125c7.75684 11.0068 7.65234 25.7861 -0.314453 36.6875zM129.691 245.092c-15.0947 -1.15332 -21.2793 -20.0215 -9.64355 -29.665l61.5293 -51.9912l-19.2871 -78.1963
c-3.56348 -14.7803 12.4736 -26.415 25.3672 -18.4482l68.4482 42.4521l68.5527 -42.5576c12.8936 -7.96582 29.0352 3.77344 25.3672 18.4492l-19.2871 78.1963l61.5293 51.9912c11.6357 9.74805 5.45117 28.7207 -9.64355 29.7695l-80.3975 5.86914l-30.3984 74.6328
c-5.76465 14.0459 -25.5762 14.0459 -31.3408 0l-30.3984 -74.6328z" />
    <glyph glyph-name="uniF144" unicode="&#xf144;" 
d="M137.936 98.9082h-94.3994c-24.0703 0 -43.5361 19.4658 -43.5361 43.5371v99.3174c0 24.0713 19.4658 43.5371 43.5361 43.5371h90.0039l108.318 74.8281c11.3027 6.48926 25.3271 -1.67383 25.3271 -14.6514v-307.163c0 -12.9775 -14.1289 -21.1406 -25.3271 -14.6523z
M390.155 355.315l38.4082 38.4082c111.249 -111.249 111.249 -292.197 0 -403.446l-38.4082 38.4082c90.0029 90.1084 90.0029 236.626 0 326.63zM356.561 62.3848l-38.4082 38.4082c24.3848 24.3848 37.7803 56.8281 37.7803 91.2598s-13.3955 66.875 -37.7803 91.2598
l38.4082 38.4082c71.4795 -71.4795 71.4795 -187.856 0 -259.336z" />
    <glyph glyph-name="uniF143" unicode="&#xf143;" 
d="M388.739 78.1113h-114.674v-49.6396c11.7285 -4.81738 21.1543 -14.1377 26.0762 -25.7617h89.6445c6.3877 11.415 18.5361 19.0596 32.4648 19.0596c20.6309 0 37.2822 -16.6514 37.2822 -37.2822s-16.6514 -37.2822 -37.2822 -37.2822
c-13.9287 0 -26.0771 7.64551 -32.4648 19.0605h-89.3301c-7.0166 -17.6982 -24.2969 -30.2656 -44.5088 -30.2656s-37.4912 12.5674 -44.5078 30.2656h-89.3301c-6.38867 -11.415 -18.5361 -19.0605 -32.4648 -19.0605c-20.6309 0 -37.2822 16.6514 -37.2822 37.2822
s16.6514 37.2822 37.2822 37.2822c13.9287 0 26.0762 -7.64453 32.4648 -19.0596h89.6445c4.92188 11.624 14.3467 20.9443 26.0762 25.7617v49.6396h-114.674c-46.0791 0 -83.3604 37.2822 -83.3604 83.3613v0c0 46.0791 37.2812 83.3613 83.3604 83.3613h114.674v36.4443
h-114.674c-46.0791 0 -83.3604 37.2812 -83.3604 83.3604v0c0 46.0791 37.2812 83.3613 83.3604 83.3613h265.688c46.0791 0 83.3604 -37.2822 83.3604 -83.3613v0c0 -46.0791 -37.2812 -83.3604 -83.3604 -83.3604h-114.674v-36.4443h114.569
c46.0781 0 83.3604 -37.2822 83.3604 -83.3613v0c0 -46.0791 -37.2822 -83.3613 -83.3604 -83.3613zM148.081 344.532c10.9961 0 20.002 9.00586 20.002 20.002c0 11.1006 -9.00586 20.0029 -20.002 20.0029s-20.0029 -9.00684 -20.0029 -20.0029
c0 -11.1006 9.00684 -20.002 20.0029 -20.002zM212.592 344.532c11.1006 0 20.002 9.00586 20.002 20.002c0 11.1006 -9.00586 20.0029 -20.002 20.0029s-20.0029 -9.00684 -20.0029 -20.0029c0 -11.1006 9.00684 -20.002 20.0029 -20.002zM148.081 141.471
c10.9961 0 20.002 8.90137 20.002 20.002s-9.00586 20.0029 -20.002 20.0029s-20.0029 -9.00684 -20.0029 -20.0029c0 -11.1006 9.00684 -20.002 20.0029 -20.002zM212.592 141.471c11.1006 0 20.002 8.90137 20.002 20.002s-9.00586 20.0029 -20.002 20.0029
s-20.0029 -9.00684 -20.0029 -20.0029c0 -11.1006 9.00684 -20.002 20.0029 -20.002zM275.427 -16.0361c0 10.7871 -8.69238 19.4785 -19.4795 19.4785c-10.7861 0 -19.4785 -8.69141 -19.4785 -19.4785c0 -10.7861 8.69238 -19.4785 19.4785 -19.4785
c10.7871 0 19.4795 8.69238 19.4795 19.4785z" />
    <glyph glyph-name="uniF157" unicode="&#xf157;" 
d="M506.968 138.535c3.35449 -5.13672 5.03223 -11.0068 5.03223 -17.0869v-156.829c0 -15.3057 -12.4746 -27.7803 -27.7803 -27.7803h-228.22h-228.22c-15.3057 0 -27.7803 12.4746 -27.7803 27.7803v156.829c0 6.08008 1.78223 12.0557 5.03223 17.0869l72.7529 112.59
c5.66113 8.70117 15.2012 13.9434 25.5791 13.9434h32.1836c4.6123 0 7.44336 -5.13672 4.92676 -9.12109l-78.624 -121.604c-0.943359 -1.57324 0.105469 -3.66992 1.99219 -3.66992h38.3682h24.1113h26.9424c3.25 0 5.76562 -2.51562 5.97559 -5.76562
c3.04004 -50.7383 45.0771 -90.9941 96.6553 -90.9941c51.5771 0 93.6143 40.2559 96.6553 90.9941c0.208984 3.14551 2.72559 5.76562 5.97461 5.76562h26.9424h28.0947h34.4902c1.88672 0 3.04004 2.09668 1.99121 3.66992l-78.624 121.604
c-2.62109 3.87891 0.209961 9.12109 4.92773 9.12109h32.1826c10.3789 0 19.9189 -5.24219 25.5791 -13.9434zM264.387 443.073l69.1895 -87.7451c5.55566 -7.02344 0.523438 -17.4014 -8.38672 -17.4014h-27.2568v-166.055c0 -23.168 -18.7646 -41.9326 -41.9326 -41.9326
v0c-23.168 0 -41.9326 18.7646 -41.9326 41.9326v165.949h-27.2568c-8.91016 0 -13.9424 10.3789 -8.38672 17.4023l69.085 87.8496c4.29785 5.45117 12.5801 5.45117 16.8779 0z" />
    <glyph glyph-name="uniF161" unicode="&#xf161;" 
d="M256 -64c-141.166 0 -256 114.834 -256 256s114.834 256 256 256s256 -114.834 256 -256s-114.834 -256 -256 -256zM331.546 16.7705c38.7656 16.8232 70.9492 46.0801 91.3242 82.7559h-50.3643c-10.3447 -33.6455 -25.3906 -61.0215 -40.96 -82.7559zM438.962 246.126
v0h-57.4697c2.82129 -16.8232 4.49316 -34.7949 4.49316 -54.126s-1.67188 -37.3027 -4.49316 -54.126h57.4697c5.01562 17.1367 7.83691 35.3174 7.83691 54.126s-2.7168 36.9893 -7.83691 54.126zM422.87 284.474c-20.375 36.6758 -52.5586 65.9326 -91.3242 82.7559
c15.5693 -21.7344 30.6162 -49.1104 40.96 -82.7559h50.3643zM275.122 374.439v-89.9658h56.7373c-15.0459 41.5869 -38.2432 71.2617 -56.7373 89.9658zM275.122 246.126v-108.252h67.3955c3.23926 16.6143 5.12012 34.5859 5.12012 54.126
s-1.98535 37.5117 -5.22461 54.126h-67.291zM275.122 99.5264v-90.2793c18.5986 18.5996 41.9004 48.2744 56.9463 90.2793h-56.9463zM89.1299 99.5264c20.375 -36.6758 52.5586 -65.9326 91.3242 -82.7559c-15.5693 21.7344 -30.6162 49.1104 -40.96 82.7559h-50.3643z
M236.878 9.56055v89.9658h-56.7373c15.0459 -41.5869 38.2432 -71.2617 56.7373 -89.9658zM236.878 137.874v0v108.252h-67.3955c-3.23926 -16.6143 -5.12012 -34.5859 -5.12012 -54.126c0 -19.5391 1.98535 -37.5117 5.22461 -54.126h67.291zM236.878 284.474v90.2793
c-18.5986 -18.5996 -41.9004 -48.2744 -56.9463 -90.2793h56.9463zM180.454 367.229c-38.7656 -16.8232 -70.9492 -46.0801 -91.3242 -82.7559h50.3643c10.3438 33.6455 25.3906 61.0215 40.96 82.7559zM65.2012 192c0 -18.8086 2.7168 -36.9893 7.83691 -54.126h57.4697
c-2.82129 16.8232 -4.49316 34.7949 -4.49316 54.126s1.67188 37.3027 4.49316 54.126h-57.4697c-5.01562 -17.1367 -7.83691 -35.3174 -7.83691 -54.126z" />
    <glyph glyph-name="uniF134" unicode="&#xf134;" 
d="M459.279 448c29.1445 0 52.876 -23.7314 52.668 -52.876v-406.353c0 -29.04 -23.6279 -52.7715 -52.7725 -52.7715h-406.353c-29.04 0 -52.7715 23.6279 -52.7715 52.7715v406.353c0 29.1445 23.7314 52.876 52.876 52.876h406.353zM450.016 131.578v254.282h-387.825
v-247.621l116.16 115.952c4.47559 4.47559 11.8662 4.47559 16.3418 0l100.651 -100.651l58.1836 58.1846c4.47656 4.47559 11.8662 4.47559 16.3418 0zM264.534 302.384c0 29.7682 14.8844 44.6523 44.6533 44.6523c29.7682 0 44.6523 -14.8841 44.6523 -44.6523
c0 -29.7689 -14.8841 -44.6533 -44.6523 -44.6533c-29.7689 0 -44.6533 14.8844 -44.6533 44.6533z" />
    <glyph glyph-name="uniF13F" unicode="&#xf13f;" 
d="M311.578 257.129v52.082h-114.915h-51.2471v-151.444c0 -3.13184 -1.46094 -5.94922 -3.86133 -7.82812l-61.8936 -46.9678c-5.32227 -4.07031 -13.0459 -0.104492 -13.0459 6.67969v202.9c0 42.585 33.7119 77.1318 75.3564 77.1318h54.5879h114.914v52.082
c0 5.11426 5.74023 8.03711 9.70703 5.00977l121.698 -92.3701c3.23535 -2.50488 3.23535 -7.51465 0 -10.0195l-121.594 -92.3701c-4.07129 -3.02637 -9.70703 0 -9.70703 5.11426zM445.384 71.4502c0 -42.585 -33.8164 -77.1318 -75.3574 -77.1318h-54.5869h-114.914
v-52.082c0 -5.11426 -5.74023 -8.03711 -9.70703 -5.00977l-121.594 92.3701c-3.23633 2.50488 -3.23633 7.51465 0 10.0195l121.594 92.2656c3.9668 3.02637 9.70703 0.104492 9.70703 -5.00977v-52.082h114.914h51.2471v151.444c0 3.13184 1.46191 5.94922 3.8623 7.82812
l61.8926 46.9678c5.32324 4.07129 12.9424 0.208984 12.9424 -6.67969v-202.9z" />
    <glyph glyph-name="uniF14D" unicode="&#xf14d;" 
d="M483.579 271.965c26.7246 -1.46094 38.625 -35.7021 17.8506 -53.5537l-113.058 -92.1797l34.2412 -139.783c4.59277 -20.5654 -11.0664 -37.6865 -28.709 -37.6865c-5.21973 0 -10.752 1.46191 -15.8672 4.90723l-123.498 75.8936l-121.932 -75.8936
c-5.11523 -3.34082 -10.6484 -4.90723 -16.0771 -4.90723c-18.0596 0 -34.3457 17.1211 -28.6035 37.6865l34.2412 139.783l-111.597 92.1797c-20.7744 17.8516 -8.87402 52.0928 17.8506 53.5537l144.272 10.4395l55.0156 133.833
c5.21973 12.6318 16.8076 18.999 28.29 18.999c11.4834 0 23.0713 -6.36719 28.291 -18.999l55.0156 -133.833z" />
    <glyph glyph-name="uniF152" unicode="&#xf152;" 
d="M13.9814 230.81c-9.04492 24.4326 -15.5947 49.3848 -13.6201 75.8975c1.24805 16.3223 7.38184 30.2549 19.3389 41.6914c12.9961 12.2676 25.2646 25.1602 38.0527 37.6367c16.6348 16.4268 37.5322 16.3223 54.167 0
c10.293 -10.0859 20.4824 -20.3779 30.6709 -30.6709c9.87695 -9.87695 19.8584 -19.7549 29.7354 -29.7354c17.3623 -17.5703 17.4668 -38.0527 0.103516 -55.5195c-12.4756 -12.4756 -24.8486 -25.0566 -37.5322 -37.3242
c-3.32715 -3.22363 -3.63867 -5.92676 -1.87207 -9.98145c8.31836 -19.9619 20.3779 -37.7402 33.8945 -54.376c27.2393 -33.4775 58.0146 -63.2129 94.7148 -86.1895c7.90234 -4.88672 16.5312 -8.52539 24.7451 -12.9961c4.2627 -2.28711 7.06934 -1.55957 10.501 1.97559
c12.3721 12.7881 25.0557 25.3682 37.7402 37.9482c16.6348 16.4268 37.4287 16.5312 54.0635 0c20.3779 -20.1699 40.6523 -40.4434 60.8223 -60.8213c16.9463 -17.0508 16.8428 -37.9492 -0.208008 -55.1035c-11.541 -11.6445 -23.7051 -22.665 -34.5176 -34.8301
c-15.8037 -17.6748 -35.7656 -23.4971 -58.4307 -22.249c-33.0625 1.76758 -63.5244 12.7881 -92.9482 27.0322c-65.292 31.71 -121.02 75.6885 -167.701 131.208c-34.5176 41.1719 -63.0049 85.8779 -81.7197 136.407zM511.991 193.589h-48.4492
c0 113.533 -92.4277 205.962 -205.962 205.962v48.4492c140.254 0 254.411 -114.157 254.411 -254.411zM372.674 193.589c0 30.7744 -11.957 59.6777 -33.6855 81.4072c-21.7295 21.7295 -50.6328 33.6855 -81.4082 33.6855v48.4502
c90.1406 0 163.543 -73.4023 163.543 -163.543h-48.4492z" />
    <glyph glyph-name="uniF158" unicode="&#xf158;" 
d="M0 192c0 141.166 114.834 256 256 256s256 -114.834 256 -256s-114.834 -256 -256 -256s-256 114.834 -256 256zM256 376.947c-101.982 0 -184.947 -82.9648 -184.947 -184.947c0 -45.7666 16.8232 -87.7715 44.6172 -120.059
c38.2432 29.2568 76.1729 48.4834 84.5322 52.5586c1.04492 0.522461 1.67188 1.56738 1.67188 2.7168v24.0322c-6.26953 10.5537 -9.61328 22.2559 -11.1797 32.7051c-3.65723 0.208984 -8.46387 5.43359 -13.6885 23.7197
c-7.10547 25.0771 0.417969 28.8389 6.79199 28.2119c-4.70215 13.166 -4.80664 26.1221 -1.67188 38.1387c3.23926 14.1064 10.8662 25.3916 19.4346 34.168c5.3291 5.74707 11.4941 10.8672 17.9727 14.9424c5.3291 3.65723 11.1807 6.79199 17.5537 8.98633v0
c4.91113 1.67188 10.2402 2.7168 15.8828 3.03027c17.4502 1.46289 30.6152 -2.82129 40.0195 -8.46387c14.1064 -7.73242 19.4355 -18.0771 19.4355 -18.0771s35.5264 -2.50781 19.957 -76.9043c4.80664 -1.67188 8.15039 -8.25488 2.6123 -27.7939
c-6.79199 -24.1377 -12.957 -25.3916 -16.7178 -22.8838c-1.46289 -8.35938 -3.86621 -17.4492 -8.0459 -26.0176v-27.7939c0 -1.14941 0.626953 -2.19434 1.67188 -2.7168c8.3584 -4.0752 46.3936 -23.3018 84.5322 -52.5586
c27.6895 32.2871 44.5127 74.292 44.5127 120.059c0 101.982 -82.9648 184.947 -184.947 184.947z" />
    <glyph glyph-name="uniF133" unicode="&#xf133;" 
d="M323.997 155.721c0 -37.5371 -30.4072 -67.9453 -67.9443 -67.9453c-37.5381 0 -67.9453 30.4082 -67.9453 67.9453s30.4072 67.9453 67.9453 67.9453c37.5371 0 67.9443 -30.4082 67.9443 -67.9453zM400.646 -13.3037h-289.187
c-61.5488 0 -111.459 49.9111 -111.459 111.46v178.775s55.0479 29.0439 146.376 44.7725l5.55664 23.9062c7.02539 30.3027 34.0771 51.6934 65.1143 51.6934h77.9062c31.1416 0 58.0889 -21.3906 65.1143 -51.6934l5.55664 -23.9062
c91.2227 -15.7285 146.376 -44.7725 146.376 -44.7725v-178.775c0.104492 -61.5488 -49.8057 -111.46 -111.354 -111.46zM96.3604 234.676c0 11.0088 -8.91211 19.9219 -19.9219 19.9219s-19.9229 -8.91309 -19.9229 -19.9219c0 -11.0098 8.91309 -19.9229 19.9229 -19.9229
s19.9219 8.91309 19.9219 19.9229zM377.263 155.721c0 66.8965 -54.209 121.211 -121.21 121.211c-66.8965 0 -121.211 -54.21 -121.211 -121.211c0 -66.8965 54.209 -121.211 121.211 -121.211c66.8965 0.105469 121.21 54.3145 121.21 121.211z" />
    <glyph glyph-name="uniF12A" unicode="&#xf12a;" 
d="M209.974 405.691l2.30371 -158.449c0.104492 -8.06348 -6.49316 -14.6611 -14.5566 -14.5566l-158.554 2.19922c-12.6719 0.209961 -18.9551 15.499 -9.94922 24.5059l44.0898 44.0889l-73.3076 73.3076l68.0713 68.0713l73.3076 -73.3076l44.0889 44.0889
c9.00684 8.90234 24.2959 2.72363 24.5059 -9.94824zM370.517 370.608l73.2031 73.4121l68.0713 -68.0713l-73.3076 -73.3076l44.0889 -44.0889c9.00586 -9.00684 2.72266 -24.2959 -9.94922 -24.5059l-158.448 -2.30371
c-8.06348 -0.104492 -14.6611 6.49316 -14.5566 14.5566l2.30371 158.449c0.208984 12.6709 15.499 18.9551 24.5059 9.94824zM482.677 124.505l-43.9844 -43.9844l73.3076 -73.3076l-68.0713 -68.0713l-73.3076 73.3076l-44.0889 -44.0889
c-9.00586 -9.00684 -24.2959 -2.72363 -24.5059 9.94824l-2.30371 158.449c-0.104492 8.06348 6.49316 14.6611 14.5566 14.5566l158.449 -2.30371c12.6719 -0.209961 18.9551 -15.5 9.94824 -24.5059zM197.721 152.257c8.06348 0.104492 14.6611 -6.49316 14.5566 -14.6611
l-2.30371 -158.449c-0.209961 -12.6719 -15.499 -18.9551 -24.5059 -9.94922l-44.0889 44.0898l-73.3076 -73.3076l-68.0713 68.0713l73.3076 73.3076l-44.0898 44.0889c-9.00586 9.00684 -2.72266 24.2959 9.94922 24.5059z" />
    </font>
</defs>
</svg>
